<svg width="463" height="464" viewBox="0 0 463 464" fill="none" xmlns="http://www.w3.org/2000/svg">
<path d="M451.965 162.229C466.362 208.473 465.966 258.064 450.832 304.072C414.862 334.438 372.179 355.788 326.32 366.353C360.294 342.942 389.016 312.697 410.65 277.549C432.285 242.402 446.356 203.126 451.965 162.229Z" fill="#0060B4"/>
<path d="M401.044 74.2969C424.349 99.4467 441.758 129.476 452.006 162.202C446.395 203.097 432.32 242.372 410.679 277.517C389.038 312.663 360.307 342.907 326.322 366.316C304.532 371.295 282.25 373.806 259.899 373.801C224.713 373.846 189.8 367.626 156.794 355.43C90.2957 330.747 34.7812 283.139 0.233398 221.168C2.2382 175.553 17.6921 131.55 44.6484 94.7046C71.6047 57.8589 108.858 29.8177 151.715 14.1133C194.572 -1.59112 241.116 -4.25631 285.484 6.45344C329.853 17.1632 370.061 40.7688 401.044 74.2969Z" fill="#003049"/>
<path d="M326.299 366.344C372.166 355.795 414.86 334.464 450.843 304.118C433.638 356.369 398.381 400.775 351.4 429.366C304.418 457.958 248.787 468.863 194.493 460.124C140.199 451.384 90.7956 423.574 55.1505 381.683C19.5055 339.792 -0.0476176 286.564 0.000822208 231.552C0.000822208 228.151 0.000822208 224.749 0.000822208 221.348C34.5132 283.287 89.9729 330.887 156.417 355.595C189.544 367.785 224.582 373.96 259.879 373.827C282.229 373.832 304.509 371.322 326.299 366.344Z" fill="#00A0F7"/>
<path d="M159.321 96.9412H245.195C279.88 96.9412 296.021 100.569 308.898 110.545C322.499 121.02 330.298 139.158 330.298 159.337C330.427 174.198 326.22 188.775 318.192 201.282C310.122 212.981 303.683 218.196 286.454 225.859C303.411 229.895 309.85 232.706 318.192 240.007C329.89 250.074 336.328 265.809 336.328 284.718C336.292 300.825 331.382 316.545 322.246 329.81C313.11 343.075 300.174 353.265 285.139 359.04C271.81 364.254 258.525 365.887 233.135 365.887H126.269L159.321 96.9412ZM207.699 254.2L200.989 312.243H219.533C252.993 312.243 265.915 302.584 265.915 279.594C265.915 259.823 257.845 254.2 228.419 254.2H207.699ZM220.621 150.54L214.183 203.776H223.659C253.492 203.776 265.598 194.707 265.598 173.938C265.598 155.8 258.344 150.54 232.953 150.54H220.621Z" fill="white"/>
</svg>
