<svg width="229" height="57" viewBox="0 0 229 57" fill="none" xmlns="http://www.w3.org/2000/svg">
<path d="M81.68 42L84.96 15.32H93.48C96.92 15.32 98.52 15.68 99.8 16.68C101.16 17.72 101.92 19.52 101.92 21.52C101.92 23.04 101.48 24.56 100.72 25.68C99.92 26.84 99.28 27.36 97.56 28.12C99.24 28.52 99.88 28.8 100.72 29.52C101.88 30.52 102.52 32.08 102.52 33.96C102.52 37.2 100.52 40.12 97.44 41.32C96.12 41.84 94.8 42 92.28 42H81.68ZM92.28 20.64H91.04L90.4 25.92H91.36C94.32 25.92 95.52 25.04 95.52 22.96C95.52 21.16 94.8 20.64 92.28 20.64ZM91.8 30.92H89.76L89.08 36.68H90.92C94.24 36.68 95.52 35.72 95.52 33.44C95.52 31.48 94.72 30.92 91.8 30.92ZM125.102 34.4H111.742C111.742 35.04 111.742 36.6 112.662 37.44C112.982 37.76 113.622 38.12 114.702 38.12C115.262 38.12 115.862 38 116.382 37.64C116.902 37.28 117.142 36.84 117.262 36.44H124.462C124.022 37.76 123.302 38.88 122.502 39.68C120.222 42.04 116.862 42.52 114.742 42.52C110.982 42.52 108.902 41.08 107.902 40.16C106.742 39.04 105.462 37.04 105.462 33.84C105.462 30.4 106.862 27.92 108.382 26.44C109.942 24.92 112.382 23.6 116.022 23.6C119.382 23.6 121.502 24.8 122.782 26.08C124.622 27.92 125.182 30.56 125.182 32.88C125.182 33.4 125.142 33.92 125.102 34.4ZM112.182 30.68H118.422C118.382 29.84 118.022 29.04 117.502 28.56C117.022 28.12 116.302 27.84 115.422 27.84C114.502 27.84 113.662 28.2 113.142 28.72C112.622 29.24 112.302 30.04 112.182 30.68ZM140.283 29.2H136.763L135.163 42H128.603L130.163 29.2H127.363L127.963 24.12H130.803L131.483 18.24H138.083L137.363 24.12H140.883L140.283 29.2ZM144.804 15.32H160.004L159.284 21.2H150.844L150.284 25.72H157.964L157.244 31.56H149.564L148.284 42H141.524L144.804 15.32ZM163.669 12.84H170.269L166.669 42H160.069L163.669 12.84ZM182.515 23.6C188.795 23.6 192.875 27.2 192.875 32.76C192.875 38.52 188.555 42.52 182.315 42.52C175.915 42.52 171.595 38.76 171.595 33.12C171.595 27.56 176.115 23.6 182.515 23.6ZM181.955 37.36C184.395 37.36 186.155 35.32 186.155 32.52C186.155 30.24 184.795 28.8 182.595 28.8C180.155 28.8 178.315 30.88 178.315 33.6C178.315 35.88 179.755 37.36 181.955 37.36ZM221.617 24.12H228.697L218.377 42H213.657L211.897 35.6C211.497 34.2 211.297 33.24 211.097 31.6C210.577 32.96 209.977 34.32 209.457 35.28L205.817 42H200.977L195.177 24.12H201.857L203.657 29.68C204.057 30.96 204.377 32.16 204.657 33.8C205.257 32.2 205.417 31.8 206.417 29.96L209.577 24.12H213.977L215.697 29.52C216.217 31.16 216.457 32.12 216.697 33.4C217.177 32.16 217.537 31.32 218.137 30.28L221.617 24.12Z" fill="white"/>
<path d="M55.7044 19.9693C57.4788 25.6618 57.43 31.766 55.5647 37.4294C51.1315 41.1673 45.8709 43.7954 40.2188 45.0957C44.4061 42.214 47.946 38.491 50.6124 34.1646C53.2788 29.8382 55.013 25.0035 55.7044 19.9693Z" fill="#0060B4"/>
<path d="M49.4277 9.14549C52.3 12.2413 54.4457 15.9377 55.7087 19.9661C55.0172 25 53.2824 29.8345 50.6152 34.1607C47.948 38.4869 44.407 42.2097 40.2184 45.0913C37.5327 45.7041 34.7865 46.0132 32.0317 46.0125C27.6952 46.0181 23.3922 45.2524 19.3242 43.7513C11.1284 40.7129 4.28629 34.8527 0.0283203 27.2245C0.275409 21.6094 2.18008 16.193 5.50241 11.6575C8.82474 7.12207 13.4161 3.67037 18.6982 1.73726C23.9803 -0.195857 29.7168 -0.523925 35.1851 0.794379C40.6535 2.11268 45.6091 5.01839 49.4277 9.14549Z" fill="#003049"/>
<path d="M40.2158 45.0947C45.8689 43.7961 51.1308 41.1704 55.5657 37.4351C53.4453 43.8668 49.0999 49.3329 43.3095 52.8523C37.519 56.3718 30.6626 57.7141 23.9709 56.6384C17.2792 55.5626 11.1904 52.1393 6.79714 46.9828C2.40393 41.8263 -0.00595908 35.2743 1.1066e-05 28.5026C1.1066e-05 28.0839 1.1066e-05 27.6652 1.1066e-05 27.2465C4.25361 34.8709 11.0889 40.7301 19.2781 43.7716C23.361 45.2721 27.6793 46.0321 32.0296 46.0158C34.7843 46.0165 37.5303 45.7075 40.2158 45.0947Z" fill="#00A0F7"/>
<path d="M19.6362 11.9329H30.22C34.4949 11.9329 36.4842 12.3794 38.0712 13.6074C39.7477 14.8968 40.7088 17.1295 40.7088 19.6134C40.7248 21.4428 40.2063 23.2371 39.2168 24.7765C38.2221 26.2166 37.4286 26.8585 35.3052 27.8019C37.3951 28.2986 38.1886 28.6447 39.2168 29.5434C40.6585 30.7825 41.452 32.7194 41.452 35.047C41.4475 37.0298 40.8425 38.9647 39.7165 40.5976C38.5904 42.2304 36.9961 43.4847 35.1431 44.1956C33.5002 44.8375 31.8629 45.0384 28.7336 45.0384H15.5625L19.6362 11.9329ZM25.5987 31.2905L24.7716 38.4352H27.0572C31.1812 38.4352 32.7738 37.2462 32.7738 34.4163C32.7738 31.9826 31.7791 31.2905 28.1524 31.2905H25.5987ZM27.1913 18.5305L26.3978 25.0835H27.5657C31.2426 25.0835 32.7346 23.9672 32.7346 21.4107C32.7346 19.178 31.8405 18.5305 28.7112 18.5305H27.1913Z" fill="white"/>
</svg>
