<svg width="69" height="69" viewBox="0 0 69 69" fill="none" xmlns="http://www.w3.org/2000/svg">
<path d="M61.4534 28.2469C61.4534 28.2469 58.219 31.2656 52.7206 34.8234C51.2112 26.0906 47.0065 15.3094 38.8128 2.15625C38.8128 2.15625 36.1175 16.2797 27.169 29.5406C23.2878 23.5031 21.5628 18.7594 21.5628 18.7594C-6.46848 46.8984 16.819 66.8438 31.4815 66.8438C50.2409 66.8438 66.7362 57.7875 61.4534 28.2469Z" fill="#FF9D33"/>
<path d="M50.3486 53.2594C51.9658 49.7016 53.1518 45.0657 53.3674 39.2438C53.3674 39.2438 51.1033 41.1844 47.2221 43.6641C46.1439 37.8422 43.233 30.7266 37.5189 21.886C37.5189 21.886 35.6861 31.2657 29.433 40.2141C26.7377 36.225 25.5518 32.9907 25.5518 32.9907C20.9158 40.3219 19.083 46.1438 18.9752 50.7797C16.3877 49.8094 14.7705 49.0547 14.7705 49.0547C19.1908 62.2079 28.3549 65.1188 32.4518 65.1188C39.783 65.1188 47.2221 62.9626 54.5533 52.5047C54.5533 52.3969 52.9361 52.8282 50.3486 53.2594Z" fill="#FFCE31"/>
<path d="M23.6114 47.3297C23.6114 47.3297 26.6302 51.4266 28.8942 50.4562C28.8942 50.4562 33.2067 43.6641 39.4599 39.8906C39.4599 39.8906 38.1661 50.2406 39.6755 52.0734C41.6161 54.5531 46.8989 49.3781 46.8989 49.3781C46.8989 55.5234 40.2145 63.1781 34.177 63.1781C28.3552 63.1781 19.9458 56.4938 23.6114 47.3297Z" fill="#FFDF85"/>
<path d="M53.6908 19.5141C55.9549 16.2797 57.4643 12.8297 57.4643 12.8297C61.2377 19.0828 58.9736 22.8562 57.3565 24.0422C55.0924 25.7672 51.1033 23.2875 53.6908 19.5141ZM12.5065 18.4359C10.2424 14.6625 10.0268 9.91875 10.0268 9.91875C4.63614 18.0047 6.68458 22.5328 8.51739 23.8266C10.8893 25.6594 14.9861 22.8563 12.5065 18.4359ZM25.0127 10.0266C25.3361 7.43906 24.258 4.85156 24.258 4.85156C29.3252 8.19375 29.3252 10.9969 28.6783 12.1828C27.708 13.5844 24.6893 12.9375 25.0127 10.0266Z" fill="#FF9D33"/>
</svg>
