<svg width="297" height="376" viewBox="0 0 297 376" fill="none" xmlns="http://www.w3.org/2000/svg">
<rect width="297" height="376" rx="20" fill="url(#paint0_linear_505_477)"/>
<path d="M51.4453 246.945H48.5469V245.117H51.4453C51.8932 245.117 52.2578 245.044 52.5391 244.898C52.8203 244.747 53.026 244.539 53.1562 244.273C53.2865 244.008 53.3516 243.708 53.3516 243.375C53.3516 243.036 53.2865 242.721 53.1562 242.43C53.026 242.138 52.8203 241.904 52.5391 241.727C52.2578 241.549 51.8932 241.461 51.4453 241.461H49.3594V251H47.0156V239.625H51.4453C52.3359 239.625 53.099 239.786 53.7344 240.109C54.375 240.427 54.8646 240.867 55.2031 241.43C55.5417 241.992 55.7109 242.635 55.7109 243.359C55.7109 244.094 55.5417 244.729 55.2031 245.266C54.8646 245.802 54.375 246.216 53.7344 246.508C53.099 246.799 52.3359 246.945 51.4453 246.945ZM59.5625 242.547V251H57.3047V242.547H59.5625ZM57.1641 240.344C57.1641 240.016 57.2786 239.745 57.5078 239.531C57.737 239.318 58.0443 239.211 58.4297 239.211C58.8099 239.211 59.1146 239.318 59.3438 239.531C59.5781 239.745 59.6953 240.016 59.6953 240.344C59.6953 240.672 59.5781 240.943 59.3438 241.156C59.1146 241.37 58.8099 241.477 58.4297 241.477C58.0443 241.477 57.737 241.37 57.5078 241.156C57.2786 240.943 57.1641 240.672 57.1641 240.344ZM64.9141 249.398C65.1901 249.398 65.4349 249.346 65.6484 249.242C65.862 249.133 66.0286 248.982 66.1484 248.789C66.2734 248.591 66.3385 248.359 66.3438 248.094H68.4609C68.4557 248.688 68.2969 249.216 67.9844 249.68C67.6719 250.138 67.2526 250.5 66.7266 250.766C66.2005 251.026 65.612 251.156 64.9609 251.156C64.3047 251.156 63.7318 251.047 63.2422 250.828C62.7578 250.609 62.3542 250.307 62.0312 249.922C61.7083 249.531 61.4661 249.078 61.3047 248.562C61.1432 248.042 61.0625 247.484 61.0625 246.891V246.664C61.0625 246.065 61.1432 245.508 61.3047 244.992C61.4661 244.471 61.7083 244.018 62.0312 243.633C62.3542 243.242 62.7578 242.938 63.2422 242.719C63.7266 242.5 64.2943 242.391 64.9453 242.391C65.638 242.391 66.2448 242.523 66.7656 242.789C67.2917 243.055 67.7031 243.435 68 243.93C68.3021 244.419 68.4557 245 68.4609 245.672H66.3438C66.3385 245.391 66.2786 245.135 66.1641 244.906C66.0547 244.677 65.8932 244.495 65.6797 244.359C65.4714 244.219 65.2135 244.148 64.9062 244.148C64.5781 244.148 64.3099 244.219 64.1016 244.359C63.8932 244.495 63.7318 244.682 63.6172 244.922C63.5026 245.156 63.4219 245.424 63.375 245.727C63.3333 246.023 63.3125 246.336 63.3125 246.664V246.891C63.3125 247.219 63.3333 247.534 63.375 247.836C63.4167 248.138 63.4948 248.406 63.6094 248.641C63.7292 248.875 63.8932 249.06 64.1016 249.195C64.3099 249.331 64.5807 249.398 64.9141 249.398ZM72.0156 238.992V251H69.7656V238.992H72.0156ZM77.3438 242.547L73.6719 246.734L71.7031 248.727L70.8828 247.102L72.4453 245.117L74.6406 242.547H77.3438ZM75.0078 251L72.5078 247.094L74.0625 245.734L77.6016 251H75.0078ZM84.8047 250.047L87.0469 242.547H89.4609L86.0625 252.273C85.9896 252.487 85.8906 252.716 85.7656 252.961C85.6458 253.206 85.4818 253.438 85.2734 253.656C85.0703 253.88 84.8125 254.062 84.5 254.203C84.1927 254.344 83.8151 254.414 83.3672 254.414C83.1536 254.414 82.9792 254.401 82.8438 254.375C82.7083 254.349 82.5469 254.312 82.3594 254.266V252.617C82.4167 252.617 82.4766 252.617 82.5391 252.617C82.6016 252.622 82.6615 252.625 82.7188 252.625C83.0156 252.625 83.2578 252.591 83.4453 252.523C83.6328 252.456 83.7839 252.352 83.8984 252.211C84.013 252.076 84.1042 251.898 84.1719 251.68L84.8047 250.047ZM83.8672 242.547L85.7031 248.672L86.0234 251.055L84.4922 251.219L81.4531 242.547H83.8672ZM89.875 246.859V246.695C89.875 246.076 89.9635 245.505 90.1406 244.984C90.3177 244.458 90.5755 244.003 90.9141 243.617C91.2526 243.232 91.6693 242.932 92.1641 242.719C92.6589 242.5 93.2266 242.391 93.8672 242.391C94.5078 242.391 95.0781 242.5 95.5781 242.719C96.0781 242.932 96.4974 243.232 96.8359 243.617C97.1797 244.003 97.4401 244.458 97.6172 244.984C97.7943 245.505 97.8828 246.076 97.8828 246.695V246.859C97.8828 247.474 97.7943 248.044 97.6172 248.57C97.4401 249.091 97.1797 249.547 96.8359 249.938C96.4974 250.323 96.0807 250.622 95.5859 250.836C95.0911 251.049 94.5234 251.156 93.8828 251.156C93.2422 251.156 92.6719 251.049 92.1719 250.836C91.6771 250.622 91.2578 250.323 90.9141 249.938C90.5755 249.547 90.3177 249.091 90.1406 248.57C89.9635 248.044 89.875 247.474 89.875 246.859ZM92.125 246.695V246.859C92.125 247.214 92.1562 247.544 92.2188 247.852C92.2812 248.159 92.3802 248.43 92.5156 248.664C92.6562 248.893 92.8385 249.073 93.0625 249.203C93.2865 249.333 93.5599 249.398 93.8828 249.398C94.1953 249.398 94.4635 249.333 94.6875 249.203C94.9115 249.073 95.0911 248.893 95.2266 248.664C95.362 248.43 95.4609 248.159 95.5234 247.852C95.5911 247.544 95.625 247.214 95.625 246.859V246.695C95.625 246.352 95.5911 246.029 95.5234 245.727C95.4609 245.419 95.3594 245.148 95.2188 244.914C95.0833 244.674 94.9036 244.487 94.6797 244.352C94.4557 244.216 94.1849 244.148 93.8672 244.148C93.5495 244.148 93.2786 244.216 93.0547 244.352C92.8359 244.487 92.6562 244.674 92.5156 244.914C92.3802 245.148 92.2812 245.419 92.2188 245.727C92.1562 246.029 92.125 246.352 92.125 246.695ZM104.266 248.977V242.547H106.516V251H104.398L104.266 248.977ZM104.516 247.242L105.18 247.227C105.18 247.789 105.115 248.312 104.984 248.797C104.854 249.276 104.659 249.693 104.398 250.047C104.138 250.396 103.81 250.669 103.414 250.867C103.018 251.06 102.552 251.156 102.016 251.156C101.604 251.156 101.224 251.099 100.875 250.984C100.531 250.865 100.234 250.68 99.9844 250.43C99.7396 250.174 99.5469 249.849 99.4062 249.453C99.2708 249.052 99.2031 248.57 99.2031 248.008V242.547H101.453V248.023C101.453 248.273 101.482 248.484 101.539 248.656C101.602 248.828 101.688 248.969 101.797 249.078C101.906 249.188 102.034 249.266 102.18 249.312C102.331 249.359 102.497 249.383 102.68 249.383C103.143 249.383 103.508 249.289 103.773 249.102C104.044 248.914 104.234 248.659 104.344 248.336C104.458 248.008 104.516 247.643 104.516 247.242ZM110.484 244.391V251H108.234V242.547H110.352L110.484 244.391ZM113.031 242.492L112.992 244.578C112.883 244.562 112.75 244.549 112.594 244.539C112.443 244.523 112.305 244.516 112.18 244.516C111.862 244.516 111.586 244.557 111.352 244.641C111.122 244.719 110.93 244.836 110.773 244.992C110.622 245.148 110.508 245.339 110.43 245.562C110.357 245.786 110.315 246.042 110.305 246.328L109.852 246.188C109.852 245.641 109.906 245.138 110.016 244.68C110.125 244.216 110.284 243.812 110.492 243.469C110.706 243.125 110.966 242.859 111.273 242.672C111.581 242.484 111.932 242.391 112.328 242.391C112.453 242.391 112.581 242.401 112.711 242.422C112.841 242.438 112.948 242.461 113.031 242.492ZM118.078 239H120.328V249.062L120.102 251H118.078V239ZM125.68 246.688V246.852C125.68 247.482 125.612 248.06 125.477 248.586C125.346 249.112 125.143 249.568 124.867 249.953C124.591 250.333 124.247 250.63 123.836 250.844C123.43 251.052 122.951 251.156 122.398 251.156C121.883 251.156 121.435 251.052 121.055 250.844C120.68 250.635 120.365 250.341 120.109 249.961C119.854 249.581 119.648 249.135 119.492 248.625C119.336 248.115 119.219 247.557 119.141 246.953V246.594C119.219 245.99 119.336 245.432 119.492 244.922C119.648 244.411 119.854 243.966 120.109 243.586C120.365 243.206 120.68 242.911 121.055 242.703C121.43 242.495 121.872 242.391 122.383 242.391C122.94 242.391 123.424 242.497 123.836 242.711C124.253 242.919 124.596 243.216 124.867 243.602C125.143 243.982 125.346 244.435 125.477 244.961C125.612 245.482 125.68 246.057 125.68 246.688ZM123.43 246.852V246.688C123.43 246.344 123.404 246.021 123.352 245.719C123.305 245.411 123.221 245.143 123.102 244.914C122.982 244.68 122.818 244.495 122.609 244.359C122.406 244.224 122.143 244.156 121.82 244.156C121.513 244.156 121.253 244.208 121.039 244.312C120.826 244.417 120.648 244.562 120.508 244.75C120.372 244.938 120.271 245.161 120.203 245.422C120.135 245.677 120.094 245.958 120.078 246.266V247.289C120.094 247.701 120.161 248.065 120.281 248.383C120.406 248.695 120.594 248.943 120.844 249.125C121.099 249.302 121.43 249.391 121.836 249.391C122.154 249.391 122.417 249.328 122.625 249.203C122.833 249.078 122.995 248.901 123.109 248.672C123.229 248.443 123.312 248.174 123.359 247.867C123.406 247.555 123.43 247.216 123.43 246.852ZM130.969 251.156C130.312 251.156 129.724 251.052 129.203 250.844C128.682 250.63 128.24 250.336 127.875 249.961C127.516 249.586 127.24 249.151 127.047 248.656C126.854 248.156 126.758 247.625 126.758 247.062V246.75C126.758 246.109 126.849 245.523 127.031 244.992C127.214 244.461 127.474 244 127.812 243.609C128.156 243.219 128.573 242.919 129.062 242.711C129.552 242.497 130.104 242.391 130.719 242.391C131.318 242.391 131.849 242.49 132.312 242.688C132.776 242.885 133.164 243.167 133.477 243.531C133.794 243.896 134.034 244.333 134.195 244.844C134.357 245.349 134.438 245.911 134.438 246.531V247.469H127.719V245.969H132.227V245.797C132.227 245.484 132.169 245.206 132.055 244.961C131.945 244.711 131.779 244.513 131.555 244.367C131.331 244.221 131.044 244.148 130.695 244.148C130.398 244.148 130.143 244.214 129.93 244.344C129.716 244.474 129.542 244.656 129.406 244.891C129.276 245.125 129.177 245.401 129.109 245.719C129.047 246.031 129.016 246.375 129.016 246.75V247.062C129.016 247.401 129.062 247.714 129.156 248C129.255 248.286 129.393 248.534 129.57 248.742C129.753 248.951 129.971 249.112 130.227 249.227C130.487 249.341 130.781 249.398 131.109 249.398C131.516 249.398 131.893 249.32 132.242 249.164C132.596 249.003 132.901 248.76 133.156 248.438L134.25 249.625C134.073 249.88 133.831 250.125 133.523 250.359C133.221 250.594 132.857 250.786 132.43 250.938C132.003 251.083 131.516 251.156 130.969 251.156ZM139.859 242.547V244.141H134.938V242.547H139.859ZM136.156 240.461H138.406V248.453C138.406 248.698 138.438 248.885 138.5 249.016C138.568 249.146 138.667 249.237 138.797 249.289C138.927 249.336 139.091 249.359 139.289 249.359C139.43 249.359 139.555 249.354 139.664 249.344C139.779 249.328 139.875 249.312 139.953 249.297L139.961 250.953C139.768 251.016 139.56 251.065 139.336 251.102C139.112 251.138 138.865 251.156 138.594 251.156C138.099 251.156 137.667 251.076 137.297 250.914C136.932 250.747 136.651 250.482 136.453 250.117C136.255 249.753 136.156 249.273 136.156 248.68V240.461ZM143.273 249.102L143.266 250.609C143.266 251.188 143.12 251.771 142.828 252.359C142.542 252.948 142.177 253.43 141.734 253.805L140.562 253.203C140.693 252.964 140.82 252.724 140.945 252.484C141.07 252.245 141.174 251.982 141.258 251.695C141.341 251.409 141.383 251.083 141.383 250.719V249.102H143.273ZM154.055 249.156V239H156.32V251H154.281L154.055 249.156ZM148.711 246.875V246.711C148.711 246.065 148.784 245.479 148.93 244.953C149.076 244.422 149.289 243.966 149.57 243.586C149.852 243.206 150.198 242.911 150.609 242.703C151.021 242.495 151.49 242.391 152.016 242.391C152.51 242.391 152.943 242.495 153.312 242.703C153.688 242.911 154.005 243.208 154.266 243.594C154.531 243.974 154.745 244.424 154.906 244.945C155.068 245.461 155.185 246.026 155.258 246.641V247C155.185 247.589 155.068 248.135 154.906 248.641C154.745 249.146 154.531 249.589 154.266 249.969C154.005 250.344 153.688 250.635 153.312 250.844C152.938 251.052 152.5 251.156 152 251.156C151.474 251.156 151.005 251.049 150.594 250.836C150.188 250.622 149.844 250.323 149.562 249.938C149.286 249.552 149.076 249.099 148.93 248.578C148.784 248.057 148.711 247.49 148.711 246.875ZM150.961 246.711V246.875C150.961 247.224 150.987 247.549 151.039 247.852C151.096 248.154 151.188 248.422 151.312 248.656C151.443 248.885 151.609 249.065 151.812 249.195C152.021 249.32 152.273 249.383 152.57 249.383C152.956 249.383 153.273 249.297 153.523 249.125C153.773 248.948 153.964 248.706 154.094 248.398C154.229 248.091 154.307 247.737 154.328 247.336V246.312C154.312 245.984 154.266 245.69 154.188 245.43C154.115 245.164 154.005 244.938 153.859 244.75C153.719 244.562 153.542 244.417 153.328 244.312C153.12 244.208 152.872 244.156 152.586 244.156C152.294 244.156 152.044 244.224 151.836 244.359C151.628 244.49 151.458 244.669 151.328 244.898C151.203 245.128 151.109 245.398 151.047 245.711C150.99 246.018 150.961 246.352 150.961 246.711ZM157.719 246.859V246.695C157.719 246.076 157.807 245.505 157.984 244.984C158.161 244.458 158.419 244.003 158.758 243.617C159.096 243.232 159.513 242.932 160.008 242.719C160.503 242.5 161.07 242.391 161.711 242.391C162.352 242.391 162.922 242.5 163.422 242.719C163.922 242.932 164.341 243.232 164.68 243.617C165.023 244.003 165.284 244.458 165.461 244.984C165.638 245.505 165.727 246.076 165.727 246.695V246.859C165.727 247.474 165.638 248.044 165.461 248.57C165.284 249.091 165.023 249.547 164.68 249.938C164.341 250.323 163.924 250.622 163.43 250.836C162.935 251.049 162.367 251.156 161.727 251.156C161.086 251.156 160.516 251.049 160.016 250.836C159.521 250.622 159.102 250.323 158.758 249.938C158.419 249.547 158.161 249.091 157.984 248.57C157.807 248.044 157.719 247.474 157.719 246.859ZM159.969 246.695V246.859C159.969 247.214 160 247.544 160.062 247.852C160.125 248.159 160.224 248.43 160.359 248.664C160.5 248.893 160.682 249.073 160.906 249.203C161.13 249.333 161.404 249.398 161.727 249.398C162.039 249.398 162.307 249.333 162.531 249.203C162.755 249.073 162.935 248.893 163.07 248.664C163.206 248.43 163.305 248.159 163.367 247.852C163.435 247.544 163.469 247.214 163.469 246.859V246.695C163.469 246.352 163.435 246.029 163.367 245.727C163.305 245.419 163.203 245.148 163.062 244.914C162.927 244.674 162.747 244.487 162.523 244.352C162.299 244.216 162.029 244.148 161.711 244.148C161.393 244.148 161.122 244.216 160.898 244.352C160.68 244.487 160.5 244.674 160.359 244.914C160.224 245.148 160.125 245.419 160.062 245.727C160 246.029 159.969 246.352 159.969 246.695ZM172.109 248.977V242.547H174.359V251H172.242L172.109 248.977ZM172.359 247.242L173.023 247.227C173.023 247.789 172.958 248.312 172.828 248.797C172.698 249.276 172.503 249.693 172.242 250.047C171.982 250.396 171.654 250.669 171.258 250.867C170.862 251.06 170.396 251.156 169.859 251.156C169.448 251.156 169.068 251.099 168.719 250.984C168.375 250.865 168.078 250.68 167.828 250.43C167.583 250.174 167.391 249.849 167.25 249.453C167.115 249.052 167.047 248.57 167.047 248.008V242.547H169.297V248.023C169.297 248.273 169.326 248.484 169.383 248.656C169.445 248.828 169.531 248.969 169.641 249.078C169.75 249.188 169.878 249.266 170.023 249.312C170.174 249.359 170.341 249.383 170.523 249.383C170.987 249.383 171.352 249.289 171.617 249.102C171.888 248.914 172.078 248.659 172.188 248.336C172.302 248.008 172.359 247.643 172.359 247.242ZM176.078 239H178.328V249.062L178.102 251H176.078V239ZM183.68 246.688V246.852C183.68 247.482 183.612 248.06 183.477 248.586C183.346 249.112 183.143 249.568 182.867 249.953C182.591 250.333 182.247 250.63 181.836 250.844C181.43 251.052 180.951 251.156 180.398 251.156C179.883 251.156 179.435 251.052 179.055 250.844C178.68 250.635 178.365 250.341 178.109 249.961C177.854 249.581 177.648 249.135 177.492 248.625C177.336 248.115 177.219 247.557 177.141 246.953V246.594C177.219 245.99 177.336 245.432 177.492 244.922C177.648 244.411 177.854 243.966 178.109 243.586C178.365 243.206 178.68 242.911 179.055 242.703C179.43 242.495 179.872 242.391 180.383 242.391C180.94 242.391 181.424 242.497 181.836 242.711C182.253 242.919 182.596 243.216 182.867 243.602C183.143 243.982 183.346 244.435 183.477 244.961C183.612 245.482 183.68 246.057 183.68 246.688ZM181.43 246.852V246.688C181.43 246.344 181.404 246.021 181.352 245.719C181.305 245.411 181.221 245.143 181.102 244.914C180.982 244.68 180.818 244.495 180.609 244.359C180.406 244.224 180.143 244.156 179.82 244.156C179.513 244.156 179.253 244.208 179.039 244.312C178.826 244.417 178.648 244.562 178.508 244.75C178.372 244.938 178.271 245.161 178.203 245.422C178.135 245.677 178.094 245.958 178.078 246.266V247.289C178.094 247.701 178.161 248.065 178.281 248.383C178.406 248.695 178.594 248.943 178.844 249.125C179.099 249.302 179.43 249.391 179.836 249.391C180.154 249.391 180.417 249.328 180.625 249.203C180.833 249.078 180.995 248.901 181.109 248.672C181.229 248.443 181.312 248.174 181.359 247.867C181.406 247.555 181.43 247.216 181.43 246.852ZM187.453 239V251H185.195V239H187.453ZM193.203 251.156C192.547 251.156 191.958 251.052 191.438 250.844C190.917 250.63 190.474 250.336 190.109 249.961C189.75 249.586 189.474 249.151 189.281 248.656C189.089 248.156 188.992 247.625 188.992 247.062V246.75C188.992 246.109 189.083 245.523 189.266 244.992C189.448 244.461 189.708 244 190.047 243.609C190.391 243.219 190.807 242.919 191.297 242.711C191.786 242.497 192.339 242.391 192.953 242.391C193.552 242.391 194.083 242.49 194.547 242.688C195.01 242.885 195.398 243.167 195.711 243.531C196.029 243.896 196.268 244.333 196.43 244.844C196.591 245.349 196.672 245.911 196.672 246.531V247.469H189.953V245.969H194.461V245.797C194.461 245.484 194.404 245.206 194.289 244.961C194.18 244.711 194.013 244.513 193.789 244.367C193.565 244.221 193.279 244.148 192.93 244.148C192.633 244.148 192.378 244.214 192.164 244.344C191.951 244.474 191.776 244.656 191.641 244.891C191.51 245.125 191.411 245.401 191.344 245.719C191.281 246.031 191.25 246.375 191.25 246.75V247.062C191.25 247.401 191.297 247.714 191.391 248C191.49 248.286 191.628 248.534 191.805 248.742C191.987 248.951 192.206 249.112 192.461 249.227C192.721 249.341 193.016 249.398 193.344 249.398C193.75 249.398 194.128 249.32 194.477 249.164C194.831 249.003 195.135 248.76 195.391 248.438L196.484 249.625C196.307 249.88 196.065 250.125 195.758 250.359C195.456 250.594 195.091 250.786 194.664 250.938C194.237 251.083 193.75 251.156 193.203 251.156ZM204.445 250.047L206.688 242.547H209.102L205.703 252.273C205.63 252.487 205.531 252.716 205.406 252.961C205.286 253.206 205.122 253.438 204.914 253.656C204.711 253.88 204.453 254.062 204.141 254.203C203.833 254.344 203.456 254.414 203.008 254.414C202.794 254.414 202.62 254.401 202.484 254.375C202.349 254.349 202.188 254.312 202 254.266V252.617C202.057 252.617 202.117 252.617 202.18 252.617C202.242 252.622 202.302 252.625 202.359 252.625C202.656 252.625 202.898 252.591 203.086 252.523C203.273 252.456 203.424 252.352 203.539 252.211C203.654 252.076 203.745 251.898 203.812 251.68L204.445 250.047ZM203.508 242.547L205.344 248.672L205.664 251.055L204.133 251.219L201.094 242.547H203.508ZM209.516 246.859V246.695C209.516 246.076 209.604 245.505 209.781 244.984C209.958 244.458 210.216 244.003 210.555 243.617C210.893 243.232 211.31 242.932 211.805 242.719C212.299 242.5 212.867 242.391 213.508 242.391C214.148 242.391 214.719 242.5 215.219 242.719C215.719 242.932 216.138 243.232 216.477 243.617C216.82 244.003 217.081 244.458 217.258 244.984C217.435 245.505 217.523 246.076 217.523 246.695V246.859C217.523 247.474 217.435 248.044 217.258 248.57C217.081 249.091 216.82 249.547 216.477 249.938C216.138 250.323 215.721 250.622 215.227 250.836C214.732 251.049 214.164 251.156 213.523 251.156C212.883 251.156 212.312 251.049 211.812 250.836C211.318 250.622 210.898 250.323 210.555 249.938C210.216 249.547 209.958 249.091 209.781 248.57C209.604 248.044 209.516 247.474 209.516 246.859ZM211.766 246.695V246.859C211.766 247.214 211.797 247.544 211.859 247.852C211.922 248.159 212.021 248.43 212.156 248.664C212.297 248.893 212.479 249.073 212.703 249.203C212.927 249.333 213.201 249.398 213.523 249.398C213.836 249.398 214.104 249.333 214.328 249.203C214.552 249.073 214.732 248.893 214.867 248.664C215.003 248.43 215.102 248.159 215.164 247.852C215.232 247.544 215.266 247.214 215.266 246.859V246.695C215.266 246.352 215.232 246.029 215.164 245.727C215.102 245.419 215 245.148 214.859 244.914C214.724 244.674 214.544 244.487 214.32 244.352C214.096 244.216 213.826 244.148 213.508 244.148C213.19 244.148 212.919 244.216 212.695 244.352C212.477 244.487 212.297 244.674 212.156 244.914C212.021 245.148 211.922 245.419 211.859 245.727C211.797 246.029 211.766 246.352 211.766 246.695ZM223.906 248.977V242.547H226.156V251H224.039L223.906 248.977ZM224.156 247.242L224.82 247.227C224.82 247.789 224.755 248.312 224.625 248.797C224.495 249.276 224.299 249.693 224.039 250.047C223.779 250.396 223.451 250.669 223.055 250.867C222.659 251.06 222.193 251.156 221.656 251.156C221.245 251.156 220.865 251.099 220.516 250.984C220.172 250.865 219.875 250.68 219.625 250.43C219.38 250.174 219.188 249.849 219.047 249.453C218.911 249.052 218.844 248.57 218.844 248.008V242.547H221.094V248.023C221.094 248.273 221.122 248.484 221.18 248.656C221.242 248.828 221.328 248.969 221.438 249.078C221.547 249.188 221.674 249.266 221.82 249.312C221.971 249.359 222.138 249.383 222.32 249.383C222.784 249.383 223.148 249.289 223.414 249.102C223.685 248.914 223.875 248.659 223.984 248.336C224.099 248.008 224.156 247.643 224.156 247.242ZM230.125 244.391V251H227.875V242.547H229.992L230.125 244.391ZM232.672 242.492L232.633 244.578C232.523 244.562 232.391 244.549 232.234 244.539C232.083 244.523 231.945 244.516 231.82 244.516C231.503 244.516 231.227 244.557 230.992 244.641C230.763 244.719 230.57 244.836 230.414 244.992C230.263 245.148 230.148 245.339 230.07 245.562C229.997 245.786 229.956 246.042 229.945 246.328L229.492 246.188C229.492 245.641 229.547 245.138 229.656 244.68C229.766 244.216 229.924 243.812 230.133 243.469C230.346 243.125 230.607 242.859 230.914 242.672C231.221 242.484 231.573 242.391 231.969 242.391C232.094 242.391 232.221 242.401 232.352 242.422C232.482 242.438 232.589 242.461 232.672 242.492ZM49.125 263.391V270H46.875V261.547H48.9922L49.125 263.391ZM51.6719 261.492L51.6328 263.578C51.5234 263.562 51.3906 263.549 51.2344 263.539C51.0833 263.523 50.9453 263.516 50.8203 263.516C50.5026 263.516 50.2266 263.557 49.9922 263.641C49.763 263.719 49.5703 263.836 49.4141 263.992C49.263 264.148 49.1484 264.339 49.0703 264.562C48.9974 264.786 48.9557 265.042 48.9453 265.328L48.4922 265.188C48.4922 264.641 48.5469 264.138 48.6562 263.68C48.7656 263.216 48.9245 262.812 49.1328 262.469C49.3464 262.125 49.6068 261.859 49.9141 261.672C50.2214 261.484 50.5729 261.391 50.9688 261.391C51.0938 261.391 51.2214 261.401 51.3516 261.422C51.4818 261.438 51.5885 261.461 51.6719 261.492ZM56.4688 270.156C55.8125 270.156 55.224 270.052 54.7031 269.844C54.1823 269.63 53.7396 269.336 53.375 268.961C53.0156 268.586 52.7396 268.151 52.5469 267.656C52.3542 267.156 52.2578 266.625 52.2578 266.062V265.75C52.2578 265.109 52.349 264.523 52.5312 263.992C52.7135 263.461 52.974 263 53.3125 262.609C53.6562 262.219 54.0729 261.919 54.5625 261.711C55.0521 261.497 55.6042 261.391 56.2188 261.391C56.8177 261.391 57.349 261.49 57.8125 261.688C58.276 261.885 58.6641 262.167 58.9766 262.531C59.2943 262.896 59.5339 263.333 59.6953 263.844C59.8568 264.349 59.9375 264.911 59.9375 265.531V266.469H53.2188V264.969H57.7266V264.797C57.7266 264.484 57.6693 264.206 57.5547 263.961C57.4453 263.711 57.2786 263.513 57.0547 263.367C56.8307 263.221 56.5443 263.148 56.1953 263.148C55.8984 263.148 55.6432 263.214 55.4297 263.344C55.2161 263.474 55.0417 263.656 54.9062 263.891C54.776 264.125 54.6771 264.401 54.6094 264.719C54.5469 265.031 54.5156 265.375 54.5156 265.75V266.062C54.5156 266.401 54.5625 266.714 54.6562 267C54.7552 267.286 54.8932 267.534 55.0703 267.742C55.2526 267.951 55.4714 268.112 55.7266 268.227C55.987 268.341 56.2812 268.398 56.6094 268.398C57.0156 268.398 57.3932 268.32 57.7422 268.164C58.0964 268.003 58.401 267.76 58.6562 267.438L59.75 268.625C59.5729 268.88 59.3307 269.125 59.0234 269.359C58.7214 269.594 58.3568 269.786 57.9297 269.938C57.5026 270.083 57.0156 270.156 56.4688 270.156ZM63.6328 267.812L65.3906 261.547H66.8203L66.3594 264.008L64.6016 270H63.4062L63.6328 267.812ZM62.7422 261.547L64 267.805L64.1172 270H62.7109L60.5703 261.547H62.7422ZM68.4297 267.703L69.6562 261.547H71.8359L69.6953 270H68.2969L68.4297 267.703ZM67.0156 261.547L68.7656 267.766L69.0078 270H67.8047L66.0469 264.016L65.6016 261.547H67.0156ZM77.5312 268.094V264.328C77.5312 264.057 77.487 263.826 77.3984 263.633C77.3099 263.435 77.1719 263.281 76.9844 263.172C76.8021 263.062 76.5651 263.008 76.2734 263.008C76.0234 263.008 75.8073 263.052 75.625 263.141C75.4427 263.224 75.3021 263.346 75.2031 263.508C75.1042 263.664 75.0547 263.849 75.0547 264.062H72.8047C72.8047 263.703 72.888 263.362 73.0547 263.039C73.2214 262.716 73.4635 262.432 73.7812 262.188C74.099 261.938 74.4766 261.742 74.9141 261.602C75.3568 261.461 75.8516 261.391 76.3984 261.391C77.0547 261.391 77.638 261.5 78.1484 261.719C78.6589 261.938 79.0599 262.266 79.3516 262.703C79.6484 263.141 79.7969 263.688 79.7969 264.344V267.961C79.7969 268.424 79.8255 268.805 79.8828 269.102C79.9401 269.393 80.0234 269.648 80.1328 269.867V270H77.8594C77.75 269.771 77.6667 269.484 77.6094 269.141C77.5573 268.792 77.5312 268.443 77.5312 268.094ZM77.8281 264.852L77.8438 266.125H76.5859C76.2891 266.125 76.0312 266.159 75.8125 266.227C75.5938 266.294 75.4141 266.391 75.2734 266.516C75.1328 266.635 75.0286 266.776 74.9609 266.938C74.8984 267.099 74.8672 267.276 74.8672 267.469C74.8672 267.661 74.9115 267.836 75 267.992C75.0885 268.143 75.2161 268.263 75.3828 268.352C75.5495 268.435 75.7448 268.477 75.9688 268.477C76.3073 268.477 76.6016 268.409 76.8516 268.273C77.1016 268.138 77.2943 267.971 77.4297 267.773C77.5703 267.576 77.6432 267.388 77.6484 267.211L78.2422 268.164C78.1589 268.378 78.0443 268.599 77.8984 268.828C77.7578 269.057 77.5781 269.273 77.3594 269.477C77.1406 269.674 76.8776 269.839 76.5703 269.969C76.263 270.094 75.8984 270.156 75.4766 270.156C74.9401 270.156 74.4531 270.049 74.0156 269.836C73.5833 269.617 73.2396 269.318 72.9844 268.938C72.7344 268.552 72.6094 268.115 72.6094 267.625C72.6094 267.182 72.6927 266.789 72.8594 266.445C73.026 266.102 73.2708 265.812 73.5938 265.578C73.9219 265.339 74.3307 265.159 74.8203 265.039C75.3099 264.914 75.8776 264.852 76.5234 264.852H77.8281ZM83.7812 263.391V270H81.5312V261.547H83.6484L83.7812 263.391ZM86.3281 261.492L86.2891 263.578C86.1797 263.562 86.0469 263.549 85.8906 263.539C85.7396 263.523 85.6016 263.516 85.4766 263.516C85.1589 263.516 84.8828 263.557 84.6484 263.641C84.4193 263.719 84.2266 263.836 84.0703 263.992C83.9193 264.148 83.8047 264.339 83.7266 264.562C83.6536 264.786 83.612 265.042 83.6016 265.328L83.1484 265.188C83.1484 264.641 83.2031 264.138 83.3125 263.68C83.4219 263.216 83.5807 262.812 83.7891 262.469C84.0026 262.125 84.263 261.859 84.5703 261.672C84.8776 261.484 85.2292 261.391 85.625 261.391C85.75 261.391 85.8776 261.401 86.0078 261.422C86.138 261.438 86.2448 261.461 86.3281 261.492ZM92.2266 268.156V258H94.4922V270H92.4531L92.2266 268.156ZM86.8828 265.875V265.711C86.8828 265.065 86.9557 264.479 87.1016 263.953C87.2474 263.422 87.4609 262.966 87.7422 262.586C88.0234 262.206 88.3698 261.911 88.7812 261.703C89.1927 261.495 89.6615 261.391 90.1875 261.391C90.6823 261.391 91.1146 261.495 91.4844 261.703C91.8594 261.911 92.1771 262.208 92.4375 262.594C92.7031 262.974 92.9167 263.424 93.0781 263.945C93.2396 264.461 93.3568 265.026 93.4297 265.641V266C93.3568 266.589 93.2396 267.135 93.0781 267.641C92.9167 268.146 92.7031 268.589 92.4375 268.969C92.1771 269.344 91.8594 269.635 91.4844 269.844C91.1094 270.052 90.6719 270.156 90.1719 270.156C89.6458 270.156 89.1771 270.049 88.7656 269.836C88.3594 269.622 88.0156 269.323 87.7344 268.938C87.4583 268.552 87.2474 268.099 87.1016 267.578C86.9557 267.057 86.8828 266.49 86.8828 265.875ZM89.1328 265.711V265.875C89.1328 266.224 89.1589 266.549 89.2109 266.852C89.2682 267.154 89.3594 267.422 89.4844 267.656C89.6146 267.885 89.7812 268.065 89.9844 268.195C90.1927 268.32 90.4453 268.383 90.7422 268.383C91.1276 268.383 91.4453 268.297 91.6953 268.125C91.9453 267.948 92.1354 267.706 92.2656 267.398C92.401 267.091 92.4792 266.737 92.5 266.336V265.312C92.4844 264.984 92.4375 264.69 92.3594 264.43C92.2865 264.164 92.1771 263.938 92.0312 263.75C91.8906 263.562 91.7135 263.417 91.5 263.312C91.2917 263.208 91.0443 263.156 90.7578 263.156C90.4661 263.156 90.2161 263.224 90.0078 263.359C89.7995 263.49 89.6302 263.669 89.5 263.898C89.375 264.128 89.2812 264.398 89.2188 264.711C89.1615 265.018 89.1328 265.352 89.1328 265.711ZM100.82 267.664C100.82 267.503 100.773 267.357 100.68 267.227C100.586 267.096 100.411 266.977 100.156 266.867C99.9062 266.753 99.5443 266.648 99.0703 266.555C98.6432 266.461 98.2448 266.344 97.875 266.203C97.5104 266.057 97.1927 265.883 96.9219 265.68C96.6562 265.477 96.4479 265.237 96.2969 264.961C96.1458 264.68 96.0703 264.359 96.0703 264C96.0703 263.646 96.1458 263.312 96.2969 263C96.4531 262.688 96.6745 262.411 96.9609 262.172C97.2526 261.927 97.6068 261.737 98.0234 261.602C98.4453 261.461 98.9193 261.391 99.4453 261.391C100.18 261.391 100.81 261.508 101.336 261.742C101.867 261.977 102.273 262.299 102.555 262.711C102.841 263.117 102.984 263.581 102.984 264.102H100.734C100.734 263.883 100.688 263.688 100.594 263.516C100.505 263.339 100.365 263.201 100.172 263.102C99.9844 262.997 99.7396 262.945 99.4375 262.945C99.1875 262.945 98.9714 262.99 98.7891 263.078C98.6068 263.161 98.4661 263.276 98.3672 263.422C98.2734 263.562 98.2266 263.719 98.2266 263.891C98.2266 264.021 98.2526 264.138 98.3047 264.242C98.362 264.341 98.4531 264.432 98.5781 264.516C98.7031 264.599 98.8646 264.677 99.0625 264.75C99.2656 264.818 99.5156 264.88 99.8125 264.938C100.422 265.062 100.966 265.227 101.445 265.43C101.924 265.628 102.305 265.898 102.586 266.242C102.867 266.581 103.008 267.026 103.008 267.578C103.008 267.953 102.924 268.297 102.758 268.609C102.591 268.922 102.352 269.195 102.039 269.43C101.727 269.659 101.352 269.839 100.914 269.969C100.482 270.094 99.9948 270.156 99.4531 270.156C98.6667 270.156 98 270.016 97.4531 269.734C96.9115 269.453 96.5 269.096 96.2188 268.664C95.9427 268.227 95.8047 267.779 95.8047 267.32H97.9375C97.9479 267.628 98.026 267.875 98.1719 268.062C98.3229 268.25 98.513 268.385 98.7422 268.469C98.9766 268.552 99.2292 268.594 99.5 268.594C99.7917 268.594 100.034 268.555 100.227 268.477C100.419 268.393 100.565 268.284 100.664 268.148C100.768 268.008 100.82 267.846 100.82 267.664ZM110.867 267.812L112.625 261.547H114.055L113.594 264.008L111.836 270H110.641L110.867 267.812ZM109.977 261.547L111.234 267.805L111.352 270H109.945L107.805 261.547H109.977ZM115.664 267.703L116.891 261.547H119.07L116.93 270H115.531L115.664 267.703ZM114.25 261.547L116 267.766L116.242 270H115.039L113.281 264.016L112.836 261.547H114.25ZM122.578 261.547V270H120.32V261.547H122.578ZM120.18 259.344C120.18 259.016 120.294 258.745 120.523 258.531C120.753 258.318 121.06 258.211 121.445 258.211C121.826 258.211 122.13 258.318 122.359 258.531C122.594 258.745 122.711 259.016 122.711 259.344C122.711 259.672 122.594 259.943 122.359 260.156C122.13 260.37 121.826 260.477 121.445 260.477C121.06 260.477 120.753 260.37 120.523 260.156C120.294 259.943 120.18 259.672 120.18 259.344ZM128.578 261.547V263.141H123.656V261.547H128.578ZM124.875 259.461H127.125V267.453C127.125 267.698 127.156 267.885 127.219 268.016C127.286 268.146 127.385 268.237 127.516 268.289C127.646 268.336 127.81 268.359 128.008 268.359C128.148 268.359 128.273 268.354 128.383 268.344C128.497 268.328 128.594 268.312 128.672 268.297L128.68 269.953C128.487 270.016 128.279 270.065 128.055 270.102C127.831 270.138 127.583 270.156 127.312 270.156C126.818 270.156 126.385 270.076 126.016 269.914C125.651 269.747 125.37 269.482 125.172 269.117C124.974 268.753 124.875 268.273 124.875 267.68V259.461ZM132.055 258V270H129.805V258H132.055ZM131.734 265.477H131.117C131.122 264.888 131.201 264.346 131.352 263.852C131.503 263.352 131.719 262.919 132 262.555C132.281 262.185 132.617 261.898 133.008 261.695C133.404 261.492 133.841 261.391 134.32 261.391C134.737 261.391 135.115 261.451 135.453 261.57C135.797 261.685 136.091 261.872 136.336 262.133C136.586 262.388 136.779 262.724 136.914 263.141C137.049 263.557 137.117 264.062 137.117 264.656V270H134.852V264.641C134.852 264.266 134.797 263.971 134.688 263.758C134.583 263.539 134.43 263.385 134.227 263.297C134.029 263.203 133.784 263.156 133.492 263.156C133.169 263.156 132.893 263.216 132.664 263.336C132.44 263.456 132.26 263.622 132.125 263.836C131.99 264.044 131.891 264.289 131.828 264.57C131.766 264.852 131.734 265.154 131.734 265.477ZM147.406 265.008H144.484L144.469 263.398H146.922C147.354 263.398 147.708 263.344 147.984 263.234C148.26 263.12 148.466 262.956 148.602 262.742C148.742 262.523 148.812 262.258 148.812 261.945C148.812 261.591 148.745 261.305 148.609 261.086C148.479 260.867 148.273 260.708 147.992 260.609C147.716 260.51 147.359 260.461 146.922 260.461H145.297V270H142.953V258.625H146.922C147.583 258.625 148.174 258.688 148.695 258.812C149.221 258.938 149.667 259.128 150.031 259.383C150.396 259.638 150.674 259.961 150.867 260.352C151.06 260.737 151.156 261.195 151.156 261.727C151.156 262.195 151.049 262.628 150.836 263.023C150.628 263.419 150.297 263.742 149.844 263.992C149.396 264.242 148.81 264.38 148.086 264.406L147.406 265.008ZM147.305 270H143.844L144.758 268.172H147.305C147.716 268.172 148.052 268.107 148.312 267.977C148.573 267.841 148.766 267.659 148.891 267.43C149.016 267.201 149.078 266.938 149.078 266.641C149.078 266.307 149.021 266.018 148.906 265.773C148.797 265.529 148.62 265.341 148.375 265.211C148.13 265.076 147.807 265.008 147.406 265.008H145.148L145.164 263.398H147.977L148.516 264.031C149.208 264.021 149.766 264.143 150.188 264.398C150.615 264.648 150.924 264.974 151.117 265.375C151.315 265.776 151.414 266.206 151.414 266.664C151.414 267.393 151.255 268.008 150.938 268.508C150.62 269.003 150.154 269.375 149.539 269.625C148.93 269.875 148.185 270 147.305 270ZM156.922 270.156C156.266 270.156 155.677 270.052 155.156 269.844C154.635 269.63 154.193 269.336 153.828 268.961C153.469 268.586 153.193 268.151 153 267.656C152.807 267.156 152.711 266.625 152.711 266.062V265.75C152.711 265.109 152.802 264.523 152.984 263.992C153.167 263.461 153.427 263 153.766 262.609C154.109 262.219 154.526 261.919 155.016 261.711C155.505 261.497 156.057 261.391 156.672 261.391C157.271 261.391 157.802 261.49 158.266 261.688C158.729 261.885 159.117 262.167 159.43 262.531C159.747 262.896 159.987 263.333 160.148 263.844C160.31 264.349 160.391 264.911 160.391 265.531V266.469H153.672V264.969H158.18V264.797C158.18 264.484 158.122 264.206 158.008 263.961C157.898 263.711 157.732 263.513 157.508 263.367C157.284 263.221 156.997 263.148 156.648 263.148C156.352 263.148 156.096 263.214 155.883 263.344C155.669 263.474 155.495 263.656 155.359 263.891C155.229 264.125 155.13 264.401 155.062 264.719C155 265.031 154.969 265.375 154.969 265.75V266.062C154.969 266.401 155.016 266.714 155.109 267C155.208 267.286 155.346 267.534 155.523 267.742C155.706 267.951 155.924 268.112 156.18 268.227C156.44 268.341 156.734 268.398 157.062 268.398C157.469 268.398 157.846 268.32 158.195 268.164C158.549 268.003 158.854 267.76 159.109 267.438L160.203 268.625C160.026 268.88 159.784 269.125 159.477 269.359C159.174 269.594 158.81 269.786 158.383 269.938C157.956 270.083 157.469 270.156 156.922 270.156ZM165.812 261.547V263.141H160.891V261.547H165.812ZM162.109 259.461H164.359V267.453C164.359 267.698 164.391 267.885 164.453 268.016C164.521 268.146 164.62 268.237 164.75 268.289C164.88 268.336 165.044 268.359 165.242 268.359C165.383 268.359 165.508 268.354 165.617 268.344C165.732 268.328 165.828 268.312 165.906 268.297L165.914 269.953C165.721 270.016 165.513 270.065 165.289 270.102C165.065 270.138 164.818 270.156 164.547 270.156C164.052 270.156 163.62 270.076 163.25 269.914C162.885 269.747 162.604 269.482 162.406 269.117C162.208 268.753 162.109 268.273 162.109 267.68V259.461ZM169.961 270H167.695V260.898C167.695 260.237 167.833 259.68 168.109 259.227C168.385 258.768 168.784 258.422 169.305 258.188C169.826 257.953 170.453 257.836 171.188 257.836C171.495 257.836 171.878 257.852 172.336 257.883C172.799 257.909 173.271 257.943 173.75 257.984C174.234 258.021 174.659 258.06 175.023 258.102L174.086 259.875C173.617 259.792 173.167 259.727 172.734 259.68C172.302 259.633 171.891 259.609 171.5 259.609C171.167 259.609 170.885 259.659 170.656 259.758C170.427 259.857 170.253 260.003 170.133 260.195C170.018 260.383 169.961 260.617 169.961 260.898V270ZM172.773 270V258.102H175.023V270H172.773ZM171.648 261.547V263.141H166.438V261.547H171.648ZM176.547 265.859V265.695C176.547 265.076 176.635 264.505 176.812 263.984C176.99 263.458 177.247 263.003 177.586 262.617C177.924 262.232 178.341 261.932 178.836 261.719C179.331 261.5 179.898 261.391 180.539 261.391C181.18 261.391 181.75 261.5 182.25 261.719C182.75 261.932 183.169 262.232 183.508 262.617C183.852 263.003 184.112 263.458 184.289 263.984C184.466 264.505 184.555 265.076 184.555 265.695V265.859C184.555 266.474 184.466 267.044 184.289 267.57C184.112 268.091 183.852 268.547 183.508 268.938C183.169 269.323 182.753 269.622 182.258 269.836C181.763 270.049 181.195 270.156 180.555 270.156C179.914 270.156 179.344 270.049 178.844 269.836C178.349 269.622 177.93 269.323 177.586 268.938C177.247 268.547 176.99 268.091 176.812 267.57C176.635 267.044 176.547 266.474 176.547 265.859ZM178.797 265.695V265.859C178.797 266.214 178.828 266.544 178.891 266.852C178.953 267.159 179.052 267.43 179.188 267.664C179.328 267.893 179.51 268.073 179.734 268.203C179.958 268.333 180.232 268.398 180.555 268.398C180.867 268.398 181.135 268.333 181.359 268.203C181.583 268.073 181.763 267.893 181.898 267.664C182.034 267.43 182.133 267.159 182.195 266.852C182.263 266.544 182.297 266.214 182.297 265.859V265.695C182.297 265.352 182.263 265.029 182.195 264.727C182.133 264.419 182.031 264.148 181.891 263.914C181.755 263.674 181.576 263.487 181.352 263.352C181.128 263.216 180.857 263.148 180.539 263.148C180.221 263.148 179.951 263.216 179.727 263.352C179.508 263.487 179.328 263.674 179.188 263.914C179.052 264.148 178.953 264.419 178.891 264.727C178.828 265.029 178.797 265.352 178.797 265.695ZM188.352 267.812L190.109 261.547H191.539L191.078 264.008L189.32 270H188.125L188.352 267.812ZM187.461 261.547L188.719 267.805L188.836 270H187.43L185.289 261.547H187.461ZM193.148 267.703L194.375 261.547H196.555L194.414 270H193.016L193.148 267.703ZM191.734 261.547L193.484 267.766L193.727 270H192.523L190.766 264.016L190.32 261.547H191.734ZM198.852 268.102L198.844 269.609C198.844 270.188 198.698 270.771 198.406 271.359C198.12 271.948 197.755 272.43 197.312 272.805L196.141 272.203C196.271 271.964 196.398 271.724 196.523 271.484C196.648 271.245 196.753 270.982 196.836 270.695C196.919 270.409 196.961 270.083 196.961 269.719V268.102H198.852ZM51.4375 287.094V283.328C51.4375 283.057 51.3932 282.826 51.3047 282.633C51.2161 282.435 51.0781 282.281 50.8906 282.172C50.7083 282.062 50.4714 282.008 50.1797 282.008C49.9297 282.008 49.7135 282.052 49.5312 282.141C49.349 282.224 49.2083 282.346 49.1094 282.508C49.0104 282.664 48.9609 282.849 48.9609 283.062H46.7109C46.7109 282.703 46.7943 282.362 46.9609 282.039C47.1276 281.716 47.3698 281.432 47.6875 281.188C48.0052 280.938 48.3828 280.742 48.8203 280.602C49.263 280.461 49.7578 280.391 50.3047 280.391C50.9609 280.391 51.5443 280.5 52.0547 280.719C52.5651 280.938 52.9661 281.266 53.2578 281.703C53.5547 282.141 53.7031 282.688 53.7031 283.344V286.961C53.7031 287.424 53.7318 287.805 53.7891 288.102C53.8464 288.393 53.9297 288.648 54.0391 288.867V289H51.7656C51.6562 288.771 51.5729 288.484 51.5156 288.141C51.4635 287.792 51.4375 287.443 51.4375 287.094ZM51.7344 283.852L51.75 285.125H50.4922C50.1953 285.125 49.9375 285.159 49.7188 285.227C49.5 285.294 49.3203 285.391 49.1797 285.516C49.0391 285.635 48.9349 285.776 48.8672 285.938C48.8047 286.099 48.7734 286.276 48.7734 286.469C48.7734 286.661 48.8177 286.836 48.9062 286.992C48.9948 287.143 49.1224 287.263 49.2891 287.352C49.4557 287.435 49.651 287.477 49.875 287.477C50.2135 287.477 50.5078 287.409 50.7578 287.273C51.0078 287.138 51.2005 286.971 51.3359 286.773C51.4766 286.576 51.5495 286.388 51.5547 286.211L52.1484 287.164C52.0651 287.378 51.9505 287.599 51.8047 287.828C51.6641 288.057 51.4844 288.273 51.2656 288.477C51.0469 288.674 50.7839 288.839 50.4766 288.969C50.1693 289.094 49.8047 289.156 49.3828 289.156C48.8464 289.156 48.3594 289.049 47.9219 288.836C47.4896 288.617 47.1458 288.318 46.8906 287.938C46.6406 287.552 46.5156 287.115 46.5156 286.625C46.5156 286.182 46.599 285.789 46.7656 285.445C46.9323 285.102 47.1771 284.812 47.5 284.578C47.8281 284.339 48.237 284.159 48.7266 284.039C49.2161 283.914 49.7839 283.852 50.4297 283.852H51.7344ZM58.1875 287.359L60.0625 280.547H62.4141L59.5625 289H58.1406L58.1875 287.359ZM56.8984 280.547L58.7812 287.367L58.8203 289H57.3906L54.5391 280.547H56.8984ZM67.8594 287.094V283.328C67.8594 283.057 67.8151 282.826 67.7266 282.633C67.638 282.435 67.5 282.281 67.3125 282.172C67.1302 282.062 66.8932 282.008 66.6016 282.008C66.3516 282.008 66.1354 282.052 65.9531 282.141C65.7708 282.224 65.6302 282.346 65.5312 282.508C65.4323 282.664 65.3828 282.849 65.3828 283.062H63.1328C63.1328 282.703 63.2161 282.362 63.3828 282.039C63.5495 281.716 63.7917 281.432 64.1094 281.188C64.4271 280.938 64.8047 280.742 65.2422 280.602C65.6849 280.461 66.1797 280.391 66.7266 280.391C67.3828 280.391 67.9661 280.5 68.4766 280.719C68.987 280.938 69.388 281.266 69.6797 281.703C69.9766 282.141 70.125 282.688 70.125 283.344V286.961C70.125 287.424 70.1536 287.805 70.2109 288.102C70.2682 288.393 70.3516 288.648 70.4609 288.867V289H68.1875C68.0781 288.771 67.9948 288.484 67.9375 288.141C67.8854 287.792 67.8594 287.443 67.8594 287.094ZM68.1562 283.852L68.1719 285.125H66.9141C66.6172 285.125 66.3594 285.159 66.1406 285.227C65.9219 285.294 65.7422 285.391 65.6016 285.516C65.4609 285.635 65.3568 285.776 65.2891 285.938C65.2266 286.099 65.1953 286.276 65.1953 286.469C65.1953 286.661 65.2396 286.836 65.3281 286.992C65.4167 287.143 65.5443 287.263 65.7109 287.352C65.8776 287.435 66.0729 287.477 66.2969 287.477C66.6354 287.477 66.9297 287.409 67.1797 287.273C67.4297 287.138 67.6224 286.971 67.7578 286.773C67.8984 286.576 67.9714 286.388 67.9766 286.211L68.5703 287.164C68.487 287.378 68.3724 287.599 68.2266 287.828C68.0859 288.057 67.9062 288.273 67.6875 288.477C67.4688 288.674 67.2057 288.839 66.8984 288.969C66.5911 289.094 66.2266 289.156 65.8047 289.156C65.2682 289.156 64.7812 289.049 64.3438 288.836C63.9115 288.617 63.5677 288.318 63.3125 287.938C63.0625 287.552 62.9375 287.115 62.9375 286.625C62.9375 286.182 63.0208 285.789 63.1875 285.445C63.3542 285.102 63.599 284.812 63.9219 284.578C64.25 284.339 64.6589 284.159 65.1484 284.039C65.638 283.914 66.2057 283.852 66.8516 283.852H68.1562ZM74.2344 280.547V289H71.9766V280.547H74.2344ZM71.8359 278.344C71.8359 278.016 71.9505 277.745 72.1797 277.531C72.4089 277.318 72.7161 277.211 73.1016 277.211C73.4818 277.211 73.7865 277.318 74.0156 277.531C74.25 277.745 74.3672 278.016 74.3672 278.344C74.3672 278.672 74.25 278.943 74.0156 279.156C73.7865 279.37 73.4818 279.477 73.1016 279.477C72.7161 279.477 72.4089 279.37 72.1797 279.156C71.9505 278.943 71.8359 278.672 71.8359 278.344ZM78.4688 277V289H76.2109V277H78.4688ZM84.8906 287.094V283.328C84.8906 283.057 84.8464 282.826 84.7578 282.633C84.6693 282.435 84.5312 282.281 84.3438 282.172C84.1615 282.062 83.9245 282.008 83.6328 282.008C83.3828 282.008 83.1667 282.052 82.9844 282.141C82.8021 282.224 82.6615 282.346 82.5625 282.508C82.4635 282.664 82.4141 282.849 82.4141 283.062H80.1641C80.1641 282.703 80.2474 282.362 80.4141 282.039C80.5807 281.716 80.8229 281.432 81.1406 281.188C81.4583 280.938 81.8359 280.742 82.2734 280.602C82.7161 280.461 83.2109 280.391 83.7578 280.391C84.4141 280.391 84.9974 280.5 85.5078 280.719C86.0182 280.938 86.4193 281.266 86.7109 281.703C87.0078 282.141 87.1562 282.688 87.1562 283.344V286.961C87.1562 287.424 87.1849 287.805 87.2422 288.102C87.2995 288.393 87.3828 288.648 87.4922 288.867V289H85.2188C85.1094 288.771 85.026 288.484 84.9688 288.141C84.9167 287.792 84.8906 287.443 84.8906 287.094ZM85.1875 283.852L85.2031 285.125H83.9453C83.6484 285.125 83.3906 285.159 83.1719 285.227C82.9531 285.294 82.7734 285.391 82.6328 285.516C82.4922 285.635 82.388 285.776 82.3203 285.938C82.2578 286.099 82.2266 286.276 82.2266 286.469C82.2266 286.661 82.2708 286.836 82.3594 286.992C82.4479 287.143 82.5755 287.263 82.7422 287.352C82.9089 287.435 83.1042 287.477 83.3281 287.477C83.6667 287.477 83.9609 287.409 84.2109 287.273C84.4609 287.138 84.6536 286.971 84.7891 286.773C84.9297 286.576 85.0026 286.388 85.0078 286.211L85.6016 287.164C85.5182 287.378 85.4036 287.599 85.2578 287.828C85.1172 288.057 84.9375 288.273 84.7188 288.477C84.5 288.674 84.237 288.839 83.9297 288.969C83.6224 289.094 83.2578 289.156 82.8359 289.156C82.2995 289.156 81.8125 289.049 81.375 288.836C80.9427 288.617 80.599 288.318 80.3438 287.938C80.0938 287.552 79.9688 287.115 79.9688 286.625C79.9688 286.182 80.0521 285.789 80.2188 285.445C80.3854 285.102 80.6302 284.812 80.9531 284.578C81.2812 284.339 81.6901 284.159 82.1797 284.039C82.6693 283.914 83.237 283.852 83.8828 283.852H85.1875ZM88.8906 277H91.1406V287.062L90.9141 289H88.8906V277ZM96.4922 284.688V284.852C96.4922 285.482 96.4245 286.06 96.2891 286.586C96.1589 287.112 95.9557 287.568 95.6797 287.953C95.4036 288.333 95.0599 288.63 94.6484 288.844C94.2422 289.052 93.763 289.156 93.2109 289.156C92.6953 289.156 92.2474 289.052 91.8672 288.844C91.4922 288.635 91.1771 288.341 90.9219 287.961C90.6667 287.581 90.4609 287.135 90.3047 286.625C90.1484 286.115 90.0312 285.557 89.9531 284.953V284.594C90.0312 283.99 90.1484 283.432 90.3047 282.922C90.4609 282.411 90.6667 281.966 90.9219 281.586C91.1771 281.206 91.4922 280.911 91.8672 280.703C92.2422 280.495 92.6849 280.391 93.1953 280.391C93.7526 280.391 94.237 280.497 94.6484 280.711C95.0651 280.919 95.4089 281.216 95.6797 281.602C95.9557 281.982 96.1589 282.435 96.2891 282.961C96.4245 283.482 96.4922 284.057 96.4922 284.688ZM94.2422 284.852V284.688C94.2422 284.344 94.2161 284.021 94.1641 283.719C94.1172 283.411 94.0339 283.143 93.9141 282.914C93.7943 282.68 93.6302 282.495 93.4219 282.359C93.2188 282.224 92.9557 282.156 92.6328 282.156C92.3255 282.156 92.0651 282.208 91.8516 282.312C91.638 282.417 91.4609 282.562 91.3203 282.75C91.1849 282.938 91.0833 283.161 91.0156 283.422C90.9479 283.677 90.9062 283.958 90.8906 284.266V285.289C90.9062 285.701 90.974 286.065 91.0938 286.383C91.2188 286.695 91.4062 286.943 91.6562 287.125C91.9115 287.302 92.2422 287.391 92.6484 287.391C92.9661 287.391 93.2292 287.328 93.4375 287.203C93.6458 287.078 93.8073 286.901 93.9219 286.672C94.0417 286.443 94.125 286.174 94.1719 285.867C94.2188 285.555 94.2422 285.216 94.2422 284.852ZM100.266 277V289H98.0078V277H100.266ZM106.016 289.156C105.359 289.156 104.771 289.052 104.25 288.844C103.729 288.63 103.286 288.336 102.922 287.961C102.562 287.586 102.286 287.151 102.094 286.656C101.901 286.156 101.805 285.625 101.805 285.062V284.75C101.805 284.109 101.896 283.523 102.078 282.992C102.26 282.461 102.521 282 102.859 281.609C103.203 281.219 103.62 280.919 104.109 280.711C104.599 280.497 105.151 280.391 105.766 280.391C106.365 280.391 106.896 280.49 107.359 280.688C107.823 280.885 108.211 281.167 108.523 281.531C108.841 281.896 109.081 282.333 109.242 282.844C109.404 283.349 109.484 283.911 109.484 284.531V285.469H102.766V283.969H107.273V283.797C107.273 283.484 107.216 283.206 107.102 282.961C106.992 282.711 106.826 282.513 106.602 282.367C106.378 282.221 106.091 282.148 105.742 282.148C105.445 282.148 105.19 282.214 104.977 282.344C104.763 282.474 104.589 282.656 104.453 282.891C104.323 283.125 104.224 283.401 104.156 283.719C104.094 284.031 104.062 284.375 104.062 284.75V285.062C104.062 285.401 104.109 285.714 104.203 286C104.302 286.286 104.44 286.534 104.617 286.742C104.799 286.951 105.018 287.112 105.273 287.227C105.534 287.341 105.828 287.398 106.156 287.398C106.562 287.398 106.94 287.32 107.289 287.164C107.643 287.003 107.948 286.76 108.203 286.438L109.297 287.625C109.12 287.88 108.878 288.125 108.57 288.359C108.268 288.594 107.904 288.786 107.477 288.938C107.049 289.083 106.562 289.156 106.016 289.156ZM117.617 289H115.352V279.797C115.352 279.156 115.477 278.617 115.727 278.18C115.982 277.737 116.339 277.404 116.797 277.18C117.26 276.951 117.81 276.836 118.445 276.836C118.654 276.836 118.854 276.852 119.047 276.883C119.24 276.909 119.427 276.943 119.609 276.984L119.586 278.68C119.487 278.654 119.383 278.635 119.273 278.625C119.164 278.615 119.036 278.609 118.891 278.609C118.62 278.609 118.388 278.656 118.195 278.75C118.008 278.839 117.865 278.971 117.766 279.148C117.667 279.326 117.617 279.542 117.617 279.797V289ZM119.305 280.547V282.141H114.094V280.547H119.305ZM120.125 284.859V284.695C120.125 284.076 120.214 283.505 120.391 282.984C120.568 282.458 120.826 282.003 121.164 281.617C121.503 281.232 121.919 280.932 122.414 280.719C122.909 280.5 123.477 280.391 124.117 280.391C124.758 280.391 125.328 280.5 125.828 280.719C126.328 280.932 126.747 281.232 127.086 281.617C127.43 282.003 127.69 282.458 127.867 282.984C128.044 283.505 128.133 284.076 128.133 284.695V284.859C128.133 285.474 128.044 286.044 127.867 286.57C127.69 287.091 127.43 287.547 127.086 287.938C126.747 288.323 126.331 288.622 125.836 288.836C125.341 289.049 124.773 289.156 124.133 289.156C123.492 289.156 122.922 289.049 122.422 288.836C121.927 288.622 121.508 288.323 121.164 287.938C120.826 287.547 120.568 287.091 120.391 286.57C120.214 286.044 120.125 285.474 120.125 284.859ZM122.375 284.695V284.859C122.375 285.214 122.406 285.544 122.469 285.852C122.531 286.159 122.63 286.43 122.766 286.664C122.906 286.893 123.089 287.073 123.312 287.203C123.536 287.333 123.81 287.398 124.133 287.398C124.445 287.398 124.714 287.333 124.938 287.203C125.161 287.073 125.341 286.893 125.477 286.664C125.612 286.43 125.711 286.159 125.773 285.852C125.841 285.544 125.875 285.214 125.875 284.859V284.695C125.875 284.352 125.841 284.029 125.773 283.727C125.711 283.419 125.609 283.148 125.469 282.914C125.333 282.674 125.154 282.487 124.93 282.352C124.706 282.216 124.435 282.148 124.117 282.148C123.799 282.148 123.529 282.216 123.305 282.352C123.086 282.487 122.906 282.674 122.766 282.914C122.63 283.148 122.531 283.419 122.469 283.727C122.406 284.029 122.375 284.352 122.375 284.695ZM131.766 282.391V289H129.516V280.547H131.633L131.766 282.391ZM134.312 280.492L134.273 282.578C134.164 282.562 134.031 282.549 133.875 282.539C133.724 282.523 133.586 282.516 133.461 282.516C133.143 282.516 132.867 282.557 132.633 282.641C132.404 282.719 132.211 282.836 132.055 282.992C131.904 283.148 131.789 283.339 131.711 283.562C131.638 283.786 131.596 284.042 131.586 284.328L131.133 284.188C131.133 283.641 131.188 283.138 131.297 282.68C131.406 282.216 131.565 281.812 131.773 281.469C131.987 281.125 132.247 280.859 132.555 280.672C132.862 280.484 133.214 280.391 133.609 280.391C133.734 280.391 133.862 280.401 133.992 280.422C134.122 280.438 134.229 280.461 134.312 280.492ZM139 284.859V284.695C139 284.076 139.089 283.505 139.266 282.984C139.443 282.458 139.701 282.003 140.039 281.617C140.378 281.232 140.794 280.932 141.289 280.719C141.784 280.5 142.352 280.391 142.992 280.391C143.633 280.391 144.203 280.5 144.703 280.719C145.203 280.932 145.622 281.232 145.961 281.617C146.305 282.003 146.565 282.458 146.742 282.984C146.919 283.505 147.008 284.076 147.008 284.695V284.859C147.008 285.474 146.919 286.044 146.742 286.57C146.565 287.091 146.305 287.547 145.961 287.938C145.622 288.323 145.206 288.622 144.711 288.836C144.216 289.049 143.648 289.156 143.008 289.156C142.367 289.156 141.797 289.049 141.297 288.836C140.802 288.622 140.383 288.323 140.039 287.938C139.701 287.547 139.443 287.091 139.266 286.57C139.089 286.044 139 285.474 139 284.859ZM141.25 284.695V284.859C141.25 285.214 141.281 285.544 141.344 285.852C141.406 286.159 141.505 286.43 141.641 286.664C141.781 286.893 141.964 287.073 142.188 287.203C142.411 287.333 142.685 287.398 143.008 287.398C143.32 287.398 143.589 287.333 143.812 287.203C144.036 287.073 144.216 286.893 144.352 286.664C144.487 286.43 144.586 286.159 144.648 285.852C144.716 285.544 144.75 285.214 144.75 284.859V284.695C144.75 284.352 144.716 284.029 144.648 283.727C144.586 283.419 144.484 283.148 144.344 282.914C144.208 282.674 144.029 282.487 143.805 282.352C143.581 282.216 143.31 282.148 142.992 282.148C142.674 282.148 142.404 282.216 142.18 282.352C141.961 282.487 141.781 282.674 141.641 282.914C141.505 283.148 141.406 283.419 141.344 283.727C141.281 284.029 141.25 284.352 141.25 284.695ZM150.594 282.352V289H148.344V280.547H150.453L150.594 282.352ZM150.266 284.477H149.656C149.656 283.852 149.737 283.289 149.898 282.789C150.06 282.284 150.286 281.854 150.578 281.5C150.87 281.141 151.216 280.867 151.617 280.68C152.023 280.487 152.477 280.391 152.977 280.391C153.372 280.391 153.734 280.448 154.062 280.562C154.391 280.677 154.672 280.859 154.906 281.109C155.146 281.359 155.328 281.69 155.453 282.102C155.583 282.513 155.648 283.016 155.648 283.609V289H153.383V283.602C153.383 283.227 153.331 282.935 153.227 282.727C153.122 282.518 152.969 282.372 152.766 282.289C152.568 282.201 152.323 282.156 152.031 282.156C151.729 282.156 151.466 282.216 151.242 282.336C151.023 282.456 150.841 282.622 150.695 282.836C150.555 283.044 150.448 283.289 150.375 283.57C150.302 283.852 150.266 284.154 150.266 284.477ZM161.25 289.156C160.594 289.156 160.005 289.052 159.484 288.844C158.964 288.63 158.521 288.336 158.156 287.961C157.797 287.586 157.521 287.151 157.328 286.656C157.135 286.156 157.039 285.625 157.039 285.062V284.75C157.039 284.109 157.13 283.523 157.312 282.992C157.495 282.461 157.755 282 158.094 281.609C158.438 281.219 158.854 280.919 159.344 280.711C159.833 280.497 160.385 280.391 161 280.391C161.599 280.391 162.13 280.49 162.594 280.688C163.057 280.885 163.445 281.167 163.758 281.531C164.076 281.896 164.315 282.333 164.477 282.844C164.638 283.349 164.719 283.911 164.719 284.531V285.469H158V283.969H162.508V283.797C162.508 283.484 162.451 283.206 162.336 282.961C162.227 282.711 162.06 282.513 161.836 282.367C161.612 282.221 161.326 282.148 160.977 282.148C160.68 282.148 160.424 282.214 160.211 282.344C159.997 282.474 159.823 282.656 159.688 282.891C159.557 283.125 159.458 283.401 159.391 283.719C159.328 284.031 159.297 284.375 159.297 284.75V285.062C159.297 285.401 159.344 285.714 159.438 286C159.536 286.286 159.674 286.534 159.852 286.742C160.034 286.951 160.253 287.112 160.508 287.227C160.768 287.341 161.062 287.398 161.391 287.398C161.797 287.398 162.174 287.32 162.523 287.164C162.878 287.003 163.182 286.76 163.438 286.438L164.531 287.625C164.354 287.88 164.112 288.125 163.805 288.359C163.503 288.594 163.138 288.786 162.711 288.938C162.284 289.083 161.797 289.156 161.25 289.156ZM170.438 283.234V285H166.023V283.234H170.438ZM176.453 280.547V282.141H171.531V280.547H176.453ZM172.75 278.461H175V286.453C175 286.698 175.031 286.885 175.094 287.016C175.161 287.146 175.26 287.237 175.391 287.289C175.521 287.336 175.685 287.359 175.883 287.359C176.023 287.359 176.148 287.354 176.258 287.344C176.372 287.328 176.469 287.312 176.547 287.297L176.555 288.953C176.362 289.016 176.154 289.065 175.93 289.102C175.706 289.138 175.458 289.156 175.188 289.156C174.693 289.156 174.26 289.076 173.891 288.914C173.526 288.747 173.245 288.482 173.047 288.117C172.849 287.753 172.75 287.273 172.75 286.68V278.461ZM180.109 280.547V289H177.852V280.547H180.109ZM177.711 278.344C177.711 278.016 177.826 277.745 178.055 277.531C178.284 277.318 178.591 277.211 178.977 277.211C179.357 277.211 179.661 277.318 179.891 277.531C180.125 277.745 180.242 278.016 180.242 278.344C180.242 278.672 180.125 278.943 179.891 279.156C179.661 279.37 179.357 279.477 178.977 279.477C178.591 279.477 178.284 279.37 178.055 279.156C177.826 278.943 177.711 278.672 177.711 278.344ZM184.219 282.297V289H181.961V280.547H184.078L184.219 282.297ZM183.906 284.477H183.281C183.281 283.888 183.352 283.346 183.492 282.852C183.638 282.352 183.849 281.919 184.125 281.555C184.406 281.185 184.753 280.898 185.164 280.695C185.576 280.492 186.052 280.391 186.594 280.391C186.969 280.391 187.312 280.448 187.625 280.562C187.938 280.672 188.206 280.846 188.43 281.086C188.659 281.32 188.836 281.628 188.961 282.008C189.086 282.383 189.148 282.833 189.148 283.359V289H186.898V283.609C186.898 283.224 186.846 282.927 186.742 282.719C186.638 282.51 186.49 282.365 186.297 282.281C186.109 282.198 185.883 282.156 185.617 282.156C185.326 282.156 185.07 282.216 184.852 282.336C184.638 282.456 184.461 282.622 184.32 282.836C184.18 283.044 184.076 283.289 184.008 283.57C183.94 283.852 183.906 284.154 183.906 284.477ZM188.938 284.219L188.133 284.32C188.133 283.768 188.201 283.255 188.336 282.781C188.477 282.307 188.682 281.891 188.953 281.531C189.229 281.172 189.57 280.893 189.977 280.695C190.383 280.492 190.852 280.391 191.383 280.391C191.789 280.391 192.159 280.451 192.492 280.57C192.826 280.685 193.109 280.87 193.344 281.125C193.583 281.375 193.766 281.703 193.891 282.109C194.021 282.516 194.086 283.013 194.086 283.602V289H191.828V283.602C191.828 283.211 191.776 282.914 191.672 282.711C191.573 282.503 191.427 282.359 191.234 282.281C191.047 282.198 190.823 282.156 190.562 282.156C190.292 282.156 190.055 282.211 189.852 282.32C189.648 282.424 189.479 282.57 189.344 282.758C189.208 282.945 189.107 283.164 189.039 283.414C188.971 283.659 188.938 283.927 188.938 284.219ZM199.719 289.156C199.062 289.156 198.474 289.052 197.953 288.844C197.432 288.63 196.99 288.336 196.625 287.961C196.266 287.586 195.99 287.151 195.797 286.656C195.604 286.156 195.508 285.625 195.508 285.062V284.75C195.508 284.109 195.599 283.523 195.781 282.992C195.964 282.461 196.224 282 196.562 281.609C196.906 281.219 197.323 280.919 197.812 280.711C198.302 280.497 198.854 280.391 199.469 280.391C200.068 280.391 200.599 280.49 201.062 280.688C201.526 280.885 201.914 281.167 202.227 281.531C202.544 281.896 202.784 282.333 202.945 282.844C203.107 283.349 203.188 283.911 203.188 284.531V285.469H196.469V283.969H200.977V283.797C200.977 283.484 200.919 283.206 200.805 282.961C200.695 282.711 200.529 282.513 200.305 282.367C200.081 282.221 199.794 282.148 199.445 282.148C199.148 282.148 198.893 282.214 198.68 282.344C198.466 282.474 198.292 282.656 198.156 282.891C198.026 283.125 197.927 283.401 197.859 283.719C197.797 284.031 197.766 284.375 197.766 284.75V285.062C197.766 285.401 197.812 285.714 197.906 286C198.005 286.286 198.143 286.534 198.32 286.742C198.503 286.951 198.721 287.112 198.977 287.227C199.237 287.341 199.531 287.398 199.859 287.398C200.266 287.398 200.643 287.32 200.992 287.164C201.346 287.003 201.651 286.76 201.906 286.438L203 287.625C202.823 287.88 202.581 288.125 202.273 288.359C201.971 288.594 201.607 288.786 201.18 288.938C200.753 289.083 200.266 289.156 199.719 289.156ZM213.453 286.977V280.547H215.703V289H213.586L213.453 286.977ZM213.703 285.242L214.367 285.227C214.367 285.789 214.302 286.312 214.172 286.797C214.042 287.276 213.846 287.693 213.586 288.047C213.326 288.396 212.997 288.669 212.602 288.867C212.206 289.06 211.74 289.156 211.203 289.156C210.792 289.156 210.411 289.099 210.062 288.984C209.719 288.865 209.422 288.68 209.172 288.43C208.927 288.174 208.734 287.849 208.594 287.453C208.458 287.052 208.391 286.57 208.391 286.008V280.547H210.641V286.023C210.641 286.273 210.669 286.484 210.727 286.656C210.789 286.828 210.875 286.969 210.984 287.078C211.094 287.188 211.221 287.266 211.367 287.312C211.518 287.359 211.685 287.383 211.867 287.383C212.331 287.383 212.695 287.289 212.961 287.102C213.232 286.914 213.422 286.659 213.531 286.336C213.646 286.008 213.703 285.643 213.703 285.242ZM221.992 286.664C221.992 286.503 221.945 286.357 221.852 286.227C221.758 286.096 221.583 285.977 221.328 285.867C221.078 285.753 220.716 285.648 220.242 285.555C219.815 285.461 219.417 285.344 219.047 285.203C218.682 285.057 218.365 284.883 218.094 284.68C217.828 284.477 217.62 284.237 217.469 283.961C217.318 283.68 217.242 283.359 217.242 283C217.242 282.646 217.318 282.312 217.469 282C217.625 281.688 217.846 281.411 218.133 281.172C218.424 280.927 218.779 280.737 219.195 280.602C219.617 280.461 220.091 280.391 220.617 280.391C221.352 280.391 221.982 280.508 222.508 280.742C223.039 280.977 223.445 281.299 223.727 281.711C224.013 282.117 224.156 282.581 224.156 283.102H221.906C221.906 282.883 221.859 282.688 221.766 282.516C221.677 282.339 221.536 282.201 221.344 282.102C221.156 281.997 220.911 281.945 220.609 281.945C220.359 281.945 220.143 281.99 219.961 282.078C219.779 282.161 219.638 282.276 219.539 282.422C219.445 282.562 219.398 282.719 219.398 282.891C219.398 283.021 219.424 283.138 219.477 283.242C219.534 283.341 219.625 283.432 219.75 283.516C219.875 283.599 220.036 283.677 220.234 283.75C220.438 283.818 220.688 283.88 220.984 283.938C221.594 284.062 222.138 284.227 222.617 284.43C223.096 284.628 223.477 284.898 223.758 285.242C224.039 285.581 224.18 286.026 224.18 286.578C224.18 286.953 224.096 287.297 223.93 287.609C223.763 287.922 223.523 288.195 223.211 288.43C222.898 288.659 222.523 288.839 222.086 288.969C221.654 289.094 221.167 289.156 220.625 289.156C219.839 289.156 219.172 289.016 218.625 288.734C218.083 288.453 217.672 288.096 217.391 287.664C217.115 287.227 216.977 286.779 216.977 286.32H219.109C219.12 286.628 219.198 286.875 219.344 287.062C219.495 287.25 219.685 287.385 219.914 287.469C220.148 287.552 220.401 287.594 220.672 287.594C220.964 287.594 221.206 287.555 221.398 287.477C221.591 287.393 221.737 287.284 221.836 287.148C221.94 287.008 221.992 286.846 221.992 286.664ZM229.531 289.156C228.875 289.156 228.286 289.052 227.766 288.844C227.245 288.63 226.802 288.336 226.438 287.961C226.078 287.586 225.802 287.151 225.609 286.656C225.417 286.156 225.32 285.625 225.32 285.062V284.75C225.32 284.109 225.411 283.523 225.594 282.992C225.776 282.461 226.036 282 226.375 281.609C226.719 281.219 227.135 280.919 227.625 280.711C228.115 280.497 228.667 280.391 229.281 280.391C229.88 280.391 230.411 280.49 230.875 280.688C231.339 280.885 231.727 281.167 232.039 281.531C232.357 281.896 232.596 282.333 232.758 282.844C232.919 283.349 233 283.911 233 284.531V285.469H226.281V283.969H230.789V283.797C230.789 283.484 230.732 283.206 230.617 282.961C230.508 282.711 230.341 282.513 230.117 282.367C229.893 282.221 229.607 282.148 229.258 282.148C228.961 282.148 228.706 282.214 228.492 282.344C228.279 282.474 228.104 282.656 227.969 282.891C227.839 283.125 227.74 283.401 227.672 283.719C227.609 284.031 227.578 284.375 227.578 284.75V285.062C227.578 285.401 227.625 285.714 227.719 286C227.818 286.286 227.956 286.534 228.133 286.742C228.315 286.951 228.534 287.112 228.789 287.227C229.049 287.341 229.344 287.398 229.672 287.398C230.078 287.398 230.456 287.32 230.805 287.164C231.159 287.003 231.464 286.76 231.719 286.438L232.812 287.625C232.635 287.88 232.393 288.125 232.086 288.359C231.784 288.594 231.419 288.786 230.992 288.938C230.565 289.083 230.078 289.156 229.531 289.156ZM236.82 277.625L236.562 285.523H234.688L234.422 277.625H236.82ZM234.359 287.969C234.359 287.635 234.474 287.359 234.703 287.141C234.938 286.917 235.245 286.805 235.625 286.805C236.01 286.805 236.318 286.917 236.547 287.141C236.776 287.359 236.891 287.635 236.891 287.969C236.891 288.292 236.776 288.565 236.547 288.789C236.318 289.013 236.01 289.125 235.625 289.125C235.245 289.125 234.938 289.013 234.703 288.789C234.474 288.565 234.359 288.292 234.359 287.969Z" fill="white" fill-opacity="0.4"/>
<path d="M65.0156 119H60.0625L60.0938 115.344H65.0156C66.2448 115.344 67.2812 115.068 68.125 114.516C68.9688 113.953 69.6042 113.135 70.0312 112.062C70.4688 110.99 70.6875 109.693 70.6875 108.172V107.062C70.6875 105.896 70.5625 104.87 70.3125 103.984C70.0729 103.099 69.7135 102.354 69.2344 101.75C68.7552 101.146 68.1667 100.693 67.4688 100.391C66.7708 100.078 65.9688 99.9219 65.0625 99.9219H59.9688V96.25H65.0625C66.5833 96.25 67.974 96.5104 69.2344 97.0312C70.5052 97.5417 71.6042 98.276 72.5312 99.2344C73.4583 100.193 74.1719 101.339 74.6719 102.672C75.1823 103.995 75.4375 105.469 75.4375 107.094V108.172C75.4375 109.786 75.1823 111.26 74.6719 112.594C74.1719 113.927 73.4583 115.073 72.5312 116.031C71.6146 116.979 70.5156 117.714 69.2344 118.234C67.9635 118.745 66.5573 119 65.0156 119ZM62.7188 96.25V119H58.0312V96.25H62.7188ZM77.8438 110.719V110.391C77.8438 109.151 78.0208 108.01 78.375 106.969C78.7292 105.917 79.2448 105.005 79.9219 104.234C80.599 103.464 81.4323 102.865 82.4219 102.438C83.4115 102 84.5469 101.781 85.8281 101.781C87.1094 101.781 88.25 102 89.25 102.438C90.25 102.865 91.0885 103.464 91.7656 104.234C92.4531 105.005 92.974 105.917 93.3281 106.969C93.6823 108.01 93.8594 109.151 93.8594 110.391V110.719C93.8594 111.948 93.6823 113.089 93.3281 114.141C92.974 115.182 92.4531 116.094 91.7656 116.875C91.0885 117.646 90.2552 118.245 89.2656 118.672C88.276 119.099 87.1406 119.312 85.8594 119.312C84.5781 119.312 83.4375 119.099 82.4375 118.672C81.4479 118.245 80.6094 117.646 79.9219 116.875C79.2448 116.094 78.7292 115.182 78.375 114.141C78.0208 113.089 77.8438 111.948 77.8438 110.719ZM82.3438 110.391V110.719C82.3438 111.427 82.4062 112.089 82.5312 112.703C82.6562 113.318 82.8542 113.859 83.125 114.328C83.4062 114.786 83.7708 115.146 84.2188 115.406C84.6667 115.667 85.2135 115.797 85.8594 115.797C86.4844 115.797 87.0208 115.667 87.4688 115.406C87.9167 115.146 88.276 114.786 88.5469 114.328C88.8177 113.859 89.0156 113.318 89.1406 112.703C89.276 112.089 89.3438 111.427 89.3438 110.719V110.391C89.3438 109.703 89.276 109.057 89.1406 108.453C89.0156 107.839 88.8125 107.297 88.5312 106.828C88.2604 106.349 87.901 105.974 87.4531 105.703C87.0052 105.432 86.4635 105.297 85.8281 105.297C85.1927 105.297 84.651 105.432 84.2031 105.703C83.7656 105.974 83.4062 106.349 83.125 106.828C82.8542 107.297 82.6562 107.839 82.5312 108.453C82.4062 109.057 82.3438 109.703 82.3438 110.391ZM106.625 114.953V102.094H111.125V119H106.891L106.625 114.953ZM107.125 111.484L108.453 111.453C108.453 112.578 108.323 113.625 108.062 114.594C107.802 115.552 107.411 116.385 106.891 117.094C106.37 117.792 105.714 118.339 104.922 118.734C104.13 119.12 103.198 119.312 102.125 119.312C101.302 119.312 100.542 119.198 99.8438 118.969C99.1562 118.729 98.5625 118.359 98.0625 117.859C97.5729 117.349 97.1875 116.698 96.9062 115.906C96.6354 115.104 96.5 114.141 96.5 113.016V102.094H101V113.047C101 113.547 101.057 113.969 101.172 114.312C101.297 114.656 101.469 114.938 101.688 115.156C101.906 115.375 102.161 115.531 102.453 115.625C102.755 115.719 103.089 115.766 103.453 115.766C104.38 115.766 105.109 115.578 105.641 115.203C106.182 114.828 106.562 114.318 106.781 113.672C107.01 113.016 107.125 112.286 107.125 111.484ZM114.562 95H119.062V115.125L118.609 119H114.562V95ZM129.766 110.375V110.703C129.766 111.964 129.63 113.12 129.359 114.172C129.099 115.224 128.693 116.135 128.141 116.906C127.589 117.667 126.901 118.26 126.078 118.688C125.266 119.104 124.307 119.312 123.203 119.312C122.172 119.312 121.276 119.104 120.516 118.688C119.766 118.271 119.135 117.682 118.625 116.922C118.115 116.161 117.703 115.271 117.391 114.25C117.078 113.229 116.844 112.115 116.688 110.906V110.188C116.844 108.979 117.078 107.865 117.391 106.844C117.703 105.823 118.115 104.932 118.625 104.172C119.135 103.411 119.766 102.823 120.516 102.406C121.266 101.99 122.151 101.781 123.172 101.781C124.286 101.781 125.255 101.995 126.078 102.422C126.911 102.839 127.599 103.432 128.141 104.203C128.693 104.964 129.099 105.87 129.359 106.922C129.63 107.964 129.766 109.115 129.766 110.375ZM125.266 110.703V110.375C125.266 109.688 125.214 109.042 125.109 108.438C125.016 107.823 124.849 107.286 124.609 106.828C124.37 106.359 124.042 105.99 123.625 105.719C123.219 105.448 122.693 105.312 122.047 105.312C121.432 105.312 120.911 105.417 120.484 105.625C120.057 105.833 119.703 106.125 119.422 106.5C119.151 106.875 118.948 107.323 118.812 107.844C118.677 108.354 118.594 108.917 118.562 109.531V111.578C118.594 112.401 118.729 113.13 118.969 113.766C119.219 114.391 119.594 114.885 120.094 115.25C120.604 115.604 121.266 115.781 122.078 115.781C122.714 115.781 123.24 115.656 123.656 115.406C124.073 115.156 124.396 114.802 124.625 114.344C124.865 113.885 125.031 113.349 125.125 112.734C125.219 112.109 125.266 111.432 125.266 110.703ZM137.312 95V119H132.797V95H137.312ZM148.812 119.312C147.5 119.312 146.323 119.104 145.281 118.688C144.24 118.26 143.354 117.672 142.625 116.922C141.906 116.172 141.354 115.302 140.969 114.312C140.583 113.312 140.391 112.25 140.391 111.125V110.5C140.391 109.219 140.573 108.047 140.938 106.984C141.302 105.922 141.823 105 142.5 104.219C143.188 103.438 144.021 102.839 145 102.422C145.979 101.995 147.083 101.781 148.312 101.781C149.51 101.781 150.573 101.979 151.5 102.375C152.427 102.771 153.203 103.333 153.828 104.062C154.464 104.792 154.943 105.667 155.266 106.688C155.589 107.698 155.75 108.823 155.75 110.062V111.938H142.312V108.938H151.328V108.594C151.328 107.969 151.214 107.411 150.984 106.922C150.766 106.422 150.432 106.026 149.984 105.734C149.536 105.443 148.964 105.297 148.266 105.297C147.672 105.297 147.161 105.427 146.734 105.688C146.307 105.948 145.958 106.312 145.688 106.781C145.427 107.25 145.229 107.802 145.094 108.438C144.969 109.062 144.906 109.75 144.906 110.5V111.125C144.906 111.802 145 112.427 145.188 113C145.385 113.573 145.661 114.068 146.016 114.484C146.38 114.901 146.818 115.224 147.328 115.453C147.849 115.682 148.438 115.797 149.094 115.797C149.906 115.797 150.661 115.641 151.359 115.328C152.068 115.005 152.677 114.521 153.188 113.875L155.375 116.25C155.021 116.76 154.536 117.25 153.922 117.719C153.318 118.188 152.589 118.573 151.734 118.875C150.88 119.167 149.906 119.312 148.812 119.312ZM171.297 117.094L175.781 102.094H180.609L173.812 121.547C173.667 121.974 173.469 122.432 173.219 122.922C172.979 123.411 172.651 123.875 172.234 124.312C171.828 124.76 171.312 125.125 170.688 125.406C170.073 125.688 169.318 125.828 168.422 125.828C167.995 125.828 167.646 125.802 167.375 125.75C167.104 125.698 166.781 125.625 166.406 125.531V122.234C166.521 122.234 166.641 122.234 166.766 122.234C166.891 122.245 167.01 122.25 167.125 122.25C167.719 122.25 168.203 122.182 168.578 122.047C168.953 121.911 169.255 121.703 169.484 121.422C169.714 121.151 169.896 120.797 170.031 120.359L171.297 117.094ZM169.422 102.094L173.094 114.344L173.734 119.109L170.672 119.438L164.594 102.094H169.422ZM181.438 110.719V110.391C181.438 109.151 181.615 108.01 181.969 106.969C182.323 105.917 182.839 105.005 183.516 104.234C184.193 103.464 185.026 102.865 186.016 102.438C187.005 102 188.141 101.781 189.422 101.781C190.703 101.781 191.844 102 192.844 102.438C193.844 102.865 194.682 103.464 195.359 104.234C196.047 105.005 196.568 105.917 196.922 106.969C197.276 108.01 197.453 109.151 197.453 110.391V110.719C197.453 111.948 197.276 113.089 196.922 114.141C196.568 115.182 196.047 116.094 195.359 116.875C194.682 117.646 193.849 118.245 192.859 118.672C191.87 119.099 190.734 119.312 189.453 119.312C188.172 119.312 187.031 119.099 186.031 118.672C185.042 118.245 184.203 117.646 183.516 116.875C182.839 116.094 182.323 115.182 181.969 114.141C181.615 113.089 181.438 111.948 181.438 110.719ZM185.938 110.391V110.719C185.938 111.427 186 112.089 186.125 112.703C186.25 113.318 186.448 113.859 186.719 114.328C187 114.786 187.365 115.146 187.812 115.406C188.26 115.667 188.807 115.797 189.453 115.797C190.078 115.797 190.615 115.667 191.062 115.406C191.51 115.146 191.87 114.786 192.141 114.328C192.411 113.859 192.609 113.318 192.734 112.703C192.87 112.089 192.938 111.427 192.938 110.719V110.391C192.938 109.703 192.87 109.057 192.734 108.453C192.609 107.839 192.406 107.297 192.125 106.828C191.854 106.349 191.495 105.974 191.047 105.703C190.599 105.432 190.057 105.297 189.422 105.297C188.786 105.297 188.245 105.432 187.797 105.703C187.359 105.974 187 106.349 186.719 106.828C186.448 107.297 186.25 107.839 186.125 108.453C186 109.057 185.938 109.703 185.938 110.391ZM210.219 114.953V102.094H214.719V119H210.484L210.219 114.953ZM210.719 111.484L212.047 111.453C212.047 112.578 211.917 113.625 211.656 114.594C211.396 115.552 211.005 116.385 210.484 117.094C209.964 117.792 209.307 118.339 208.516 118.734C207.724 119.12 206.792 119.312 205.719 119.312C204.896 119.312 204.135 119.198 203.438 118.969C202.75 118.729 202.156 118.359 201.656 117.859C201.167 117.349 200.781 116.698 200.5 115.906C200.229 115.104 200.094 114.141 200.094 113.016V102.094H204.594V113.047C204.594 113.547 204.651 113.969 204.766 114.312C204.891 114.656 205.062 114.938 205.281 115.156C205.5 115.375 205.755 115.531 206.047 115.625C206.349 115.719 206.682 115.766 207.047 115.766C207.974 115.766 208.703 115.578 209.234 115.203C209.776 114.828 210.156 114.318 210.375 113.672C210.604 113.016 210.719 112.286 210.719 111.484ZM222.656 105.781V119H218.156V102.094H222.391L222.656 105.781ZM227.75 101.984L227.672 106.156C227.453 106.125 227.188 106.099 226.875 106.078C226.573 106.047 226.297 106.031 226.047 106.031C225.411 106.031 224.859 106.115 224.391 106.281C223.932 106.438 223.547 106.672 223.234 106.984C222.932 107.297 222.703 107.677 222.547 108.125C222.401 108.573 222.318 109.083 222.297 109.656L221.391 109.375C221.391 108.281 221.5 107.276 221.719 106.359C221.938 105.432 222.255 104.625 222.672 103.938C223.099 103.25 223.62 102.719 224.234 102.344C224.849 101.969 225.552 101.781 226.344 101.781C226.594 101.781 226.849 101.802 227.109 101.844C227.37 101.875 227.583 101.922 227.75 101.984ZM62.5781 152.625L66.0938 140.094H68.9531L68.0312 145.016L64.5156 157H62.125L62.5781 152.625ZM60.7969 140.094L63.3125 152.609L63.5469 157H60.7344L56.4531 140.094H60.7969ZM72.1719 152.406L74.625 140.094H78.9844L74.7031 157H71.9062L72.1719 152.406ZM69.3438 140.094L72.8438 152.531L73.3281 157H70.9219L67.4062 145.031L66.5156 140.094H69.3438ZM86 140.094V157H81.4844V140.094H86ZM81.2031 135.688C81.2031 135.031 81.4323 134.49 81.8906 134.062C82.349 133.635 82.9635 133.422 83.7344 133.422C84.4948 133.422 85.1042 133.635 85.5625 134.062C86.0312 134.49 86.2656 135.031 86.2656 135.688C86.2656 136.344 86.0312 136.885 85.5625 137.312C85.1042 137.74 84.4948 137.953 83.7344 137.953C82.9635 137.953 82.349 137.74 81.8906 137.312C81.4323 136.885 81.2031 136.344 81.2031 135.688ZM94.125 143.703V157H89.625V140.094H93.8438L94.125 143.703ZM93.4688 147.953H92.25C92.25 146.703 92.4115 145.578 92.7344 144.578C93.0573 143.568 93.5104 142.708 94.0938 142C94.6771 141.281 95.3698 140.734 96.1719 140.359C96.9844 139.974 97.8906 139.781 98.8906 139.781C99.6823 139.781 100.406 139.896 101.062 140.125C101.719 140.354 102.281 140.719 102.75 141.219C103.229 141.719 103.594 142.38 103.844 143.203C104.104 144.026 104.234 145.031 104.234 146.219V157H99.7031V146.203C99.7031 145.453 99.599 144.87 99.3906 144.453C99.1823 144.036 98.875 143.745 98.4688 143.578C98.0729 143.401 97.5833 143.312 97 143.312C96.3958 143.312 95.8698 143.432 95.4219 143.672C94.9844 143.911 94.6198 144.245 94.3281 144.672C94.0469 145.089 93.8333 145.578 93.6875 146.141C93.5417 146.703 93.4688 147.307 93.4688 147.953ZM112.062 143.703V157H107.562V140.094H111.781L112.062 143.703ZM111.406 147.953H110.188C110.188 146.703 110.349 145.578 110.672 144.578C110.995 143.568 111.448 142.708 112.031 142C112.615 141.281 113.307 140.734 114.109 140.359C114.922 139.974 115.828 139.781 116.828 139.781C117.62 139.781 118.344 139.896 119 140.125C119.656 140.354 120.219 140.719 120.688 141.219C121.167 141.719 121.531 142.38 121.781 143.203C122.042 144.026 122.172 145.031 122.172 146.219V157H117.641V146.203C117.641 145.453 117.536 144.87 117.328 144.453C117.12 144.036 116.812 143.745 116.406 143.578C116.01 143.401 115.521 143.312 114.938 143.312C114.333 143.312 113.807 143.432 113.359 143.672C112.922 143.911 112.557 144.245 112.266 144.672C111.984 145.089 111.771 145.578 111.625 146.141C111.479 146.703 111.406 147.307 111.406 147.953ZM130.344 140.094V157H125.828V140.094H130.344ZM125.547 135.688C125.547 135.031 125.776 134.49 126.234 134.062C126.693 133.635 127.307 133.422 128.078 133.422C128.839 133.422 129.448 133.635 129.906 134.062C130.375 134.49 130.609 135.031 130.609 135.688C130.609 136.344 130.375 136.885 129.906 137.312C129.448 137.74 128.839 137.953 128.078 137.953C127.307 137.953 126.693 137.74 126.234 137.312C125.776 136.885 125.547 136.344 125.547 135.688ZM138.469 143.703V157H133.969V140.094H138.188L138.469 143.703ZM137.812 147.953H136.594C136.594 146.703 136.755 145.578 137.078 144.578C137.401 143.568 137.854 142.708 138.438 142C139.021 141.281 139.714 140.734 140.516 140.359C141.328 139.974 142.234 139.781 143.234 139.781C144.026 139.781 144.75 139.896 145.406 140.125C146.062 140.354 146.625 140.719 147.094 141.219C147.573 141.719 147.938 142.38 148.188 143.203C148.448 144.026 148.578 145.031 148.578 146.219V157H144.047V146.203C144.047 145.453 143.943 144.87 143.734 144.453C143.526 144.036 143.219 143.745 142.812 143.578C142.417 143.401 141.927 143.312 141.344 143.312C140.74 143.312 140.214 143.432 139.766 143.672C139.328 143.911 138.964 144.245 138.672 144.672C138.391 145.089 138.177 145.578 138.031 146.141C137.885 146.703 137.812 147.307 137.812 147.953ZM162.703 140.094H166.781V156.438C166.781 157.979 166.438 159.286 165.75 160.359C165.073 161.443 164.125 162.26 162.906 162.812C161.688 163.375 160.271 163.656 158.656 163.656C157.948 163.656 157.198 163.562 156.406 163.375C155.625 163.188 154.875 162.896 154.156 162.5C153.448 162.104 152.854 161.604 152.375 161L154.359 158.344C154.88 158.948 155.484 159.417 156.172 159.75C156.859 160.094 157.62 160.266 158.453 160.266C159.266 160.266 159.953 160.115 160.516 159.812C161.078 159.521 161.51 159.089 161.812 158.516C162.115 157.953 162.266 157.271 162.266 156.469V144L162.703 140.094ZM151.328 148.75V148.422C151.328 147.13 151.484 145.958 151.797 144.906C152.12 143.844 152.573 142.932 153.156 142.172C153.75 141.411 154.469 140.823 155.312 140.406C156.156 139.99 157.109 139.781 158.172 139.781C159.297 139.781 160.24 139.99 161 140.406C161.76 140.823 162.385 141.417 162.875 142.188C163.365 142.948 163.745 143.849 164.016 144.891C164.297 145.922 164.516 147.052 164.672 148.281V149C164.516 150.177 164.281 151.271 163.969 152.281C163.656 153.292 163.245 154.177 162.734 154.938C162.224 155.688 161.589 156.271 160.828 156.688C160.078 157.104 159.182 157.312 158.141 157.312C157.099 157.312 156.156 157.099 155.312 156.672C154.479 156.245 153.766 155.646 153.172 154.875C152.578 154.104 152.12 153.198 151.797 152.156C151.484 151.115 151.328 149.979 151.328 148.75ZM155.828 148.422V148.75C155.828 149.448 155.896 150.099 156.031 150.703C156.167 151.307 156.375 151.844 156.656 152.312C156.948 152.771 157.307 153.13 157.734 153.391C158.172 153.641 158.688 153.766 159.281 153.766C160.104 153.766 160.776 153.594 161.297 153.25C161.818 152.896 162.208 152.411 162.469 151.797C162.729 151.182 162.88 150.474 162.922 149.672V147.625C162.901 146.969 162.812 146.38 162.656 145.859C162.5 145.328 162.281 144.875 162 144.5C161.719 144.125 161.354 143.833 160.906 143.625C160.458 143.417 159.927 143.312 159.312 143.312C158.719 143.312 158.203 143.448 157.766 143.719C157.339 143.979 156.979 144.339 156.688 144.797C156.406 145.255 156.193 145.797 156.047 146.422C155.901 147.036 155.828 147.703 155.828 148.422ZM179.422 152.328C179.422 152.005 179.328 151.714 179.141 151.453C178.953 151.193 178.604 150.953 178.094 150.734C177.594 150.505 176.87 150.297 175.922 150.109C175.068 149.922 174.271 149.688 173.531 149.406C172.802 149.115 172.167 148.766 171.625 148.359C171.094 147.953 170.677 147.474 170.375 146.922C170.073 146.359 169.922 145.719 169.922 145C169.922 144.292 170.073 143.625 170.375 143C170.688 142.375 171.13 141.823 171.703 141.344C172.286 140.854 172.995 140.474 173.828 140.203C174.672 139.922 175.62 139.781 176.672 139.781C178.141 139.781 179.401 140.016 180.453 140.484C181.516 140.953 182.328 141.599 182.891 142.422C183.464 143.234 183.75 144.161 183.75 145.203H179.25C179.25 144.766 179.156 144.375 178.969 144.031C178.792 143.677 178.51 143.401 178.125 143.203C177.75 142.995 177.26 142.891 176.656 142.891C176.156 142.891 175.724 142.979 175.359 143.156C174.995 143.323 174.714 143.552 174.516 143.844C174.328 144.125 174.234 144.438 174.234 144.781C174.234 145.042 174.286 145.276 174.391 145.484C174.505 145.682 174.688 145.865 174.938 146.031C175.188 146.198 175.51 146.354 175.906 146.5C176.312 146.635 176.812 146.76 177.406 146.875C178.625 147.125 179.714 147.453 180.672 147.859C181.63 148.255 182.391 148.797 182.953 149.484C183.516 150.161 183.797 151.052 183.797 152.156C183.797 152.906 183.63 153.594 183.297 154.219C182.964 154.844 182.484 155.391 181.859 155.859C181.234 156.318 180.484 156.677 179.609 156.938C178.745 157.188 177.771 157.312 176.688 157.312C175.115 157.312 173.781 157.031 172.688 156.469C171.604 155.906 170.781 155.193 170.219 154.328C169.667 153.453 169.391 152.557 169.391 151.641H173.656C173.677 152.255 173.833 152.75 174.125 153.125C174.427 153.5 174.807 153.771 175.266 153.938C175.734 154.104 176.24 154.188 176.781 154.188C177.365 154.188 177.849 154.109 178.234 153.953C178.62 153.786 178.911 153.568 179.109 153.297C179.318 153.016 179.422 152.693 179.422 152.328ZM66.0312 178.094V181.281H56.1875V178.094H66.0312ZM58.625 173.922H63.125V189.906C63.125 190.396 63.1875 190.771 63.3125 191.031C63.4479 191.292 63.6458 191.474 63.9062 191.578C64.1667 191.672 64.4948 191.719 64.8906 191.719C65.1719 191.719 65.4219 191.708 65.6406 191.688C65.8698 191.656 66.0625 191.625 66.2188 191.594L66.2344 194.906C65.849 195.031 65.4323 195.13 64.9844 195.203C64.5365 195.276 64.0417 195.312 63.5 195.312C62.5104 195.312 61.6458 195.151 60.9062 194.828C60.1771 194.495 59.6146 193.964 59.2188 193.234C58.8229 192.505 58.625 191.547 58.625 190.359V173.922ZM67.4688 186.719V186.391C67.4688 185.151 67.6458 184.01 68 182.969C68.3542 181.917 68.8698 181.005 69.5469 180.234C70.224 179.464 71.0573 178.865 72.0469 178.438C73.0365 178 74.1719 177.781 75.4531 177.781C76.7344 177.781 77.875 178 78.875 178.438C79.875 178.865 80.7135 179.464 81.3906 180.234C82.0781 181.005 82.599 181.917 82.9531 182.969C83.3073 184.01 83.4844 185.151 83.4844 186.391V186.719C83.4844 187.948 83.3073 189.089 82.9531 190.141C82.599 191.182 82.0781 192.094 81.3906 192.875C80.7135 193.646 79.8802 194.245 78.8906 194.672C77.901 195.099 76.7656 195.312 75.4844 195.312C74.2031 195.312 73.0625 195.099 72.0625 194.672C71.0729 194.245 70.2344 193.646 69.5469 192.875C68.8698 192.094 68.3542 191.182 68 190.141C67.6458 189.089 67.4688 187.948 67.4688 186.719ZM71.9688 186.391V186.719C71.9688 187.427 72.0312 188.089 72.1562 188.703C72.2812 189.318 72.4792 189.859 72.75 190.328C73.0312 190.786 73.3958 191.146 73.8438 191.406C74.2917 191.667 74.8385 191.797 75.4844 191.797C76.1094 191.797 76.6458 191.667 77.0938 191.406C77.5417 191.146 77.901 190.786 78.1719 190.328C78.4427 189.859 78.6406 189.318 78.7656 188.703C78.901 188.089 78.9688 187.427 78.9688 186.719V186.391C78.9688 185.703 78.901 185.057 78.7656 184.453C78.6406 183.839 78.4375 183.297 78.1562 182.828C77.8854 182.349 77.526 181.974 77.0781 181.703C76.6302 181.432 76.0885 181.297 75.4531 181.297C74.8177 181.297 74.276 181.432 73.8281 181.703C73.3906 181.974 73.0312 182.349 72.75 182.828C72.4792 183.297 72.2812 183.839 72.1562 184.453C72.0312 185.057 71.9688 185.703 71.9688 186.391ZM96.2344 191.312V171H100.766V195H96.6875L96.2344 191.312ZM85.5469 186.75V186.422C85.5469 185.13 85.6927 183.958 85.9844 182.906C86.276 181.844 86.7031 180.932 87.2656 180.172C87.8281 179.411 88.5208 178.823 89.3438 178.406C90.1667 177.99 91.1042 177.781 92.1562 177.781C93.1458 177.781 94.0104 177.99 94.75 178.406C95.5 178.823 96.1354 179.417 96.6562 180.188C97.1875 180.948 97.6146 181.849 97.9375 182.891C98.2604 183.922 98.4948 185.052 98.6406 186.281V187C98.4948 188.177 98.2604 189.271 97.9375 190.281C97.6146 191.292 97.1875 192.177 96.6562 192.938C96.1354 193.688 95.5 194.271 94.75 194.688C94 195.104 93.125 195.312 92.125 195.312C91.0729 195.312 90.1354 195.099 89.3125 194.672C88.5 194.245 87.8125 193.646 87.25 192.875C86.6979 192.104 86.276 191.198 85.9844 190.156C85.6927 189.115 85.5469 187.979 85.5469 186.75ZM90.0469 186.422V186.75C90.0469 187.448 90.099 188.099 90.2031 188.703C90.3177 189.307 90.5 189.844 90.75 190.312C91.0104 190.771 91.3438 191.13 91.75 191.391C92.1667 191.641 92.6719 191.766 93.2656 191.766C94.0365 191.766 94.6719 191.594 95.1719 191.25C95.6719 190.896 96.0521 190.411 96.3125 189.797C96.5833 189.182 96.7396 188.474 96.7812 187.672V185.625C96.75 184.969 96.6562 184.38 96.5 183.859C96.3542 183.328 96.1354 182.875 95.8438 182.5C95.5625 182.125 95.2083 181.833 94.7812 181.625C94.3646 181.417 93.8698 181.312 93.2969 181.312C92.7135 181.312 92.2135 181.448 91.7969 181.719C91.3802 181.979 91.0417 182.339 90.7812 182.797C90.5312 183.255 90.3438 183.797 90.2188 184.422C90.1042 185.036 90.0469 185.703 90.0469 186.422ZM113.406 191.188V183.656C113.406 183.115 113.318 182.651 113.141 182.266C112.964 181.87 112.688 181.562 112.312 181.344C111.948 181.125 111.474 181.016 110.891 181.016C110.391 181.016 109.958 181.104 109.594 181.281C109.229 181.448 108.948 181.693 108.75 182.016C108.552 182.328 108.453 182.698 108.453 183.125H103.953C103.953 182.406 104.12 181.724 104.453 181.078C104.786 180.432 105.271 179.865 105.906 179.375C106.542 178.875 107.297 178.484 108.172 178.203C109.057 177.922 110.047 177.781 111.141 177.781C112.453 177.781 113.62 178 114.641 178.438C115.661 178.875 116.464 179.531 117.047 180.406C117.641 181.281 117.938 182.375 117.938 183.688V190.922C117.938 191.849 117.995 192.609 118.109 193.203C118.224 193.786 118.391 194.297 118.609 194.734V195H114.062C113.844 194.542 113.677 193.969 113.562 193.281C113.458 192.583 113.406 191.885 113.406 191.188ZM114 184.703L114.031 187.25H111.516C110.922 187.25 110.406 187.318 109.969 187.453C109.531 187.589 109.172 187.781 108.891 188.031C108.609 188.271 108.401 188.552 108.266 188.875C108.141 189.198 108.078 189.552 108.078 189.938C108.078 190.323 108.167 190.672 108.344 190.984C108.521 191.286 108.776 191.526 109.109 191.703C109.443 191.87 109.833 191.953 110.281 191.953C110.958 191.953 111.547 191.818 112.047 191.547C112.547 191.276 112.932 190.943 113.203 190.547C113.484 190.151 113.63 189.776 113.641 189.422L114.828 191.328C114.661 191.755 114.432 192.198 114.141 192.656C113.859 193.115 113.5 193.547 113.062 193.953C112.625 194.349 112.099 194.677 111.484 194.938C110.87 195.188 110.141 195.312 109.297 195.312C108.224 195.312 107.25 195.099 106.375 194.672C105.51 194.234 104.823 193.635 104.312 192.875C103.812 192.104 103.562 191.229 103.562 190.25C103.562 189.365 103.729 188.578 104.062 187.891C104.396 187.203 104.885 186.625 105.531 186.156C106.188 185.677 107.005 185.318 107.984 185.078C108.964 184.828 110.099 184.703 111.391 184.703H114ZM126.172 193.094L130.656 178.094H135.484L128.688 197.547C128.542 197.974 128.344 198.432 128.094 198.922C127.854 199.411 127.526 199.875 127.109 200.312C126.703 200.76 126.188 201.125 125.562 201.406C124.948 201.688 124.193 201.828 123.297 201.828C122.87 201.828 122.521 201.802 122.25 201.75C121.979 201.698 121.656 201.625 121.281 201.531V198.234C121.396 198.234 121.516 198.234 121.641 198.234C121.766 198.245 121.885 198.25 122 198.25C122.594 198.25 123.078 198.182 123.453 198.047C123.828 197.911 124.13 197.703 124.359 197.422C124.589 197.151 124.771 196.797 124.906 196.359L126.172 193.094ZM124.297 178.094L127.969 190.344L128.609 195.109L125.547 195.438L119.469 178.094H124.297ZM144.531 186.719V186.391C144.531 185.151 144.708 184.01 145.062 182.969C145.417 181.917 145.932 181.005 146.609 180.234C147.286 179.464 148.12 178.865 149.109 178.438C150.099 178 151.234 177.781 152.516 177.781C153.797 177.781 154.938 178 155.938 178.438C156.938 178.865 157.776 179.464 158.453 180.234C159.141 181.005 159.661 181.917 160.016 182.969C160.37 184.01 160.547 185.151 160.547 186.391V186.719C160.547 187.948 160.37 189.089 160.016 190.141C159.661 191.182 159.141 192.094 158.453 192.875C157.776 193.646 156.943 194.245 155.953 194.672C154.964 195.099 153.828 195.312 152.547 195.312C151.266 195.312 150.125 195.099 149.125 194.672C148.135 194.245 147.297 193.646 146.609 192.875C145.932 192.094 145.417 191.182 145.062 190.141C144.708 189.089 144.531 187.948 144.531 186.719ZM149.031 186.391V186.719C149.031 187.427 149.094 188.089 149.219 188.703C149.344 189.318 149.542 189.859 149.812 190.328C150.094 190.786 150.458 191.146 150.906 191.406C151.354 191.667 151.901 191.797 152.547 191.797C153.172 191.797 153.708 191.667 154.156 191.406C154.604 191.146 154.964 190.786 155.234 190.328C155.505 189.859 155.703 189.318 155.828 188.703C155.964 188.089 156.031 187.427 156.031 186.719V186.391C156.031 185.703 155.964 185.057 155.828 184.453C155.703 183.839 155.5 183.297 155.219 182.828C154.948 182.349 154.589 181.974 154.141 181.703C153.693 181.432 153.151 181.297 152.516 181.297C151.88 181.297 151.339 181.432 150.891 181.703C150.453 181.974 150.094 182.349 149.812 182.828C149.542 183.297 149.344 183.839 149.219 184.453C149.094 185.057 149.031 185.703 149.031 186.391ZM167.719 181.703V195H163.219V178.094H167.438L167.719 181.703ZM167.062 185.953H165.844C165.844 184.703 166.005 183.578 166.328 182.578C166.651 181.568 167.104 180.708 167.688 180C168.271 179.281 168.964 178.734 169.766 178.359C170.578 177.974 171.484 177.781 172.484 177.781C173.276 177.781 174 177.896 174.656 178.125C175.312 178.354 175.875 178.719 176.344 179.219C176.823 179.719 177.188 180.38 177.438 181.203C177.698 182.026 177.828 183.031 177.828 184.219V195H173.297V184.203C173.297 183.453 173.193 182.87 172.984 182.453C172.776 182.036 172.469 181.745 172.062 181.578C171.667 181.401 171.177 181.312 170.594 181.312C169.99 181.312 169.464 181.432 169.016 181.672C168.578 181.911 168.214 182.245 167.922 182.672C167.641 183.089 167.427 183.578 167.281 184.141C167.135 184.703 167.062 185.307 167.062 185.953ZM186 171V195H181.484V171H186ZM194.734 193.094L199.219 178.094H204.047L197.25 197.547C197.104 197.974 196.906 198.432 196.656 198.922C196.417 199.411 196.089 199.875 195.672 200.312C195.266 200.76 194.75 201.125 194.125 201.406C193.51 201.688 192.755 201.828 191.859 201.828C191.432 201.828 191.083 201.802 190.812 201.75C190.542 201.698 190.219 201.625 189.844 201.531V198.234C189.958 198.234 190.078 198.234 190.203 198.234C190.328 198.245 190.448 198.25 190.562 198.25C191.156 198.25 191.641 198.182 192.016 198.047C192.391 197.911 192.693 197.703 192.922 197.422C193.151 197.151 193.333 196.797 193.469 196.359L194.734 193.094ZM192.859 178.094L196.531 190.344L197.172 195.109L194.109 195.438L188.031 178.094H192.859ZM210.922 172.25L210.406 188.047H206.656L206.125 172.25H210.922ZM206 192.938C206 192.271 206.229 191.719 206.688 191.281C207.156 190.833 207.771 190.609 208.531 190.609C209.302 190.609 209.917 190.833 210.375 191.281C210.833 191.719 211.062 192.271 211.062 192.938C211.062 193.583 210.833 194.13 210.375 194.578C209.917 195.026 209.302 195.25 208.531 195.25C207.771 195.25 207.156 195.026 206.688 194.578C206.229 194.13 206 193.583 206 192.938Z" fill="white"/>
<path d="M278.453 48.2469C278.453 48.2469 275.219 51.2656 269.721 54.8234C268.211 46.0906 264.007 35.3094 255.813 22.1562C255.813 22.1562 253.117 36.2797 244.169 49.5406C240.288 43.5031 238.563 38.7594 238.563 38.7594C210.532 66.8984 233.819 86.8438 248.482 86.8438C267.241 86.8438 283.736 77.7875 278.453 48.2469Z" fill="#FF9D33"/>
<path d="M267.349 73.2594C268.966 69.7016 270.152 65.0656 270.367 59.2437C270.367 59.2437 268.103 61.1844 264.222 63.6641C263.144 57.8422 260.233 50.7266 254.519 41.8859C254.519 41.8859 252.686 51.2656 246.433 60.2141C243.738 56.225 242.552 52.9906 242.552 52.9906C237.916 60.3219 236.083 66.1437 235.975 70.7797C233.388 69.8094 231.771 69.0547 231.771 69.0547C236.191 82.2078 245.355 85.1187 249.452 85.1187C256.783 85.1187 264.222 82.9625 271.553 72.5047C271.553 72.3969 269.936 72.8281 267.349 73.2594Z" fill="#FFCE31"/>
<path d="M240.611 67.3297C240.611 67.3297 243.63 71.4266 245.894 70.4562C245.894 70.4562 250.207 63.6641 256.46 59.8906C256.46 59.8906 255.166 70.2406 256.675 72.0734C258.616 74.5531 263.899 69.3781 263.899 69.3781C263.899 75.5234 257.215 83.1781 251.177 83.1781C245.355 83.1781 236.946 76.4938 240.611 67.3297Z" fill="#FFDF85"/>
<path d="M270.691 39.5141C272.955 36.2797 274.464 32.8297 274.464 32.8297C278.238 39.0828 275.974 42.8562 274.356 44.0422C272.092 45.7672 268.103 43.2875 270.691 39.5141ZM229.506 38.4359C227.242 34.6625 227.027 29.9187 227.027 29.9187C221.636 38.0047 223.685 42.5328 225.517 43.8266C227.889 45.6594 231.986 42.8563 229.506 38.4359ZM242.013 30.0266C242.336 27.4391 241.258 24.8516 241.258 24.8516C246.325 28.1937 246.325 30.9969 245.678 32.1828C244.708 33.5844 241.689 32.9375 242.013 30.0266Z" fill="#FF9D33"/>
<defs>
<linearGradient id="paint0_linear_505_477" x1="12.5" y1="-7.5" x2="239" y2="394" gradientUnits="userSpaceOnUse">
<stop stop-color="#0059E0"/>
<stop offset="1" stop-color="#000C1A" stop-opacity="0.3"/>
</linearGradient>
</defs>
</svg>
